<?xml version="1.0" encoding="UTF-8"?>
<!-- Generator: visioncortex VTracer 0.6.3 -->
<svg version="1.1" xmlns="http://www.w3.org/2000/svg" width="200" height="75">
<path d="M0 0 C0.69 0.46 1.39 0.91 2.1 1.39 C19.78 13.14 36.63 26.17 52.26 40.54 C55.79 43.71 59.45 46.69 63.14 49.68 C77.66 61.46 91.8 73.78 104 88 C105 89.13 106 90.26 107.01 91.38 C147.59 137.15 176.19 193.47 196 251 C196.37 252.07 196.74 253.14 197.12 254.25 C215.22 307.34 223.65 362.04 225 418 C225.03 419.11 225.03 419.11 225.05 420.23 C225.14 424.49 225.1 428.74 225 433 C224.98 433.93 224.96 434.85 224.95 435.8 C223.39 509.23 209.18 582.65 177 649 C176.64 649.74 176.29 650.49 175.92 651.25 C163.34 677.41 148.63 703.21 132 727 C131.61 727.56 131.22 728.13 130.82 728.71 C124.05 738.55 116.66 747.83 109 757 C108.5 757.6 107.99 758.21 107.48 758.83 C93.88 775.08 79.42 791.42 63.22 805.12 C61.38 806.67 59.58 808.25 57.78 809.85 C48.52 818.03 38.93 825.64 29 833 C28.26 833.55 27.53 834.09 26.77 834.66 C6.53 849.62 -14.72 862.75 -36.8 874.79 C-38.84 875.91 -40.87 877.04 -42.9 878.18 C-69.97 893.08 -99.18 904.22 -128.44 913.94 C-129.48 914.29 -130.52 914.64 -131.59 915.01 C-154.17 922.29 -176.5 922.62 -199.97 922.57 C-203.69 922.57 -207.41 922.57 -211.12 922.58 C-219.92 922.6 -228.71 922.59 -237.5 922.58 C-246.48 922.56 -255.45 922.58 -264.43 922.61 C-272.22 922.63 -280.01 922.64 -287.8 922.63 C-292.41 922.63 -297.03 922.63 -301.65 922.65 C-353.07 922.86 -400.28 909.79 -447.94 891.19 C-448.95 890.8 -448.95 890.8 -449.98 890.4 C-475.38 880.51 -475.38 880.51 -479.62 871.09 C-482.52 866.69 -487.94 865.41 -492.69 863.62 C-503.94 859.02 -513.89 853.7 -524 847 C-524.97 846.36 -525.95 845.73 -526.95 845.07 C-534.02 840.45 -541.07 835.82 -548 831 C-548.89 830.39 -549.78 829.77 -550.7 829.14 C-551.93 828.25 -551.93 828.25 -553.19 827.34 C-553.91 826.82 -554.64 826.3 -555.39 825.76 C-557.5 823.45 -557.46 821.95 -557.44 818.88 C-557.4 816.31 -557.4 816.31 -558 814 C-560.17 812.28 -562.37 811.43 -564.93 810.38 C-584.14 801.74 -601.19 783.1 -614 767 C-614.96 765.82 -615.92 764.64 -616.88 763.46 C-622.62 756.39 -628.09 749.21 -633.32 741.77 C-636.39 737.43 -639.53 733.15 -642.69 728.88 C-643.28 728.07 -643.87 727.27 -644.48 726.44 C-647.51 722.33 -650.57 718.25 -653.7 714.22 C-680.04 680.2 -698.8 640.81 -712 600 C-712.46 598.59 -712.46 598.59 -712.92 597.15 C-728.56 548.31 -737.06 496.65 -737.2 445.32 C-737.21 444.61 -737.21 443.89 -737.21 443.15 C-737.23 439.35 -737.24 435.55 -737.24 431.75 C-737.24 428.7 -737.26 425.65 -737.28 422.59 C-737.49 394.47 -736.13 366.52 -731.38 338.75 C-731.25 338.01 -731.13 337.27 -731 336.51 C-722.69 286.83 -706.51 239.09 -689 192 C-685.7 191.67 -682.4 191.34 -679 191 C-678.69 190.11 -678.39 189.22 -678.07 188.31 C-666.57 155.82 -648.29 126.9 -627 100 C-626.26 99.07 -625.53 98.14 -624.77 97.18 C-619.96 91.2 -614.9 85.52 -609.69 79.91 C-607.26 77.28 -604.87 74.62 -602.5 71.94 C-595.78 64.46 -588.72 57.31 -581.07 50.79 C-578.62 48.67 -576.25 46.46 -573.88 44.25 C-568.13 39.02 -562.1 34.25 -555.94 29.51 C-553.93 27.95 -551.94 26.35 -549.95 24.75 C-476.8 -33.71 -388.07 -68.25 -295 -76 C-294.14 -76.07 -293.29 -76.14 -292.4 -76.22 C-191.73 -84.2 -86.59 -56.77 0 0 Z " fill="#039BFC" transform="translate(740,78)"/>
<path d="M0 0 C1.69 -0.01 1.69 -0.01 3.42 -0.02 C14.74 0 24.89 0.16 33.44 8.25 C34 8.64 34.56 9.03 35.14 9.43 C37.29 12.45 36.75 15.88 36.62 19.44 C36.61 20.19 36.6 20.94 36.58 21.71 C36.55 23.56 36.49 25.4 36.44 27.25 C39.41 27.25 42.38 27.25 45.44 27.25 C45.44 33.52 45.44 39.79 45.44 46.25 C48.74 46.25 52.04 46.25 55.44 46.25 C55.44 49.55 55.44 52.85 55.44 56.25 C58.41 56.25 61.38 56.25 64.44 56.25 C64.44 62.85 64.44 69.45 64.44 76.25 C67.74 76.25 71.04 76.25 74.44 76.25 C74.44 82.85 74.44 89.45 74.44 96.25 C77.41 96.25 80.38 96.25 83.44 96.25 C83.44 102.52 83.44 108.79 83.44 115.25 C86.74 115.25 90.04 115.25 93.44 115.25 C93.44 118.55 93.44 121.85 93.44 125.25 C96.41 125.25 99.38 125.25 102.44 125.25 C108.8 137.37 111.82 146.31 111.44 160.25 C114.74 160.25 118.04 160.25 121.44 160.25 C131.78 179.39 141.38 198.95 150.25 218.81 C150.57 219.53 150.89 220.24 151.22 220.97 C153.94 227.18 154.55 231.56 154.44 238.25 C157.41 238.25 160.38 238.25 163.44 238.25 C163.44 244.85 163.44 251.45 163.44 258.25 C166.74 258.25 170.04 258.25 173.44 258.25 C173.44 263.2 173.44 268.15 173.44 273.25 C176.41 273.25 179.38 273.25 182.44 273.25 C182.44 279.85 182.44 286.45 182.44 293.25 C185.74 293.25 189.04 293.25 192.44 293.25 C194.88 295.45 194.88 295.45 196.44 298.38 C196.97 299.33 197.51 300.28 198.06 301.26 C200.5 306.55 201.69 310.77 201.56 316.62 C201.54 317.68 201.53 318.74 201.51 319.84 C201.47 321.03 201.47 321.03 201.44 322.25 C204.41 322.25 207.38 322.25 210.44 322.25 C210.44 328.85 210.44 335.45 210.44 342.25 C213.74 342.25 217.04 342.25 220.44 342.25 C220.44 345.55 220.44 348.85 220.44 352.25 C223.41 352.25 226.38 352.25 229.44 352.25 C229.44 358.52 229.44 364.79 229.44 371.25 C232.74 371.25 236.04 371.25 239.44 371.25 C239.44 377.85 239.44 384.45 239.44 391.25 C242.41 391.25 245.38 391.25 248.44 391.25 C248.44 411.05 248.44 430.85 248.44 451.25 C241.81 453.46 236.17 455.02 229.44 456.25 C229.44 459.55 229.44 462.85 229.44 466.25 C187.2 466.25 144.96 466.25 101.44 466.25 C101.44 462.95 101.44 459.65 101.44 456.25 C98.47 456.25 95.5 456.25 92.44 456.25 C92.44 452.95 92.44 449.65 92.44 446.25 C90.91 446.44 89.39 446.62 87.81 446.81 C84.48 446.82 83.02 446.79 80.54 444.49 C78.97 442.15 77.68 439.79 76.44 437.25 C75.51 435.64 75.51 435.64 74.56 434 C72.89 428.44 73.2 423.01 73.44 417.25 C70.14 417.25 66.84 417.25 63.44 417.25 C63.44 410.65 63.44 404.05 63.44 397.25 C60.47 397.25 57.5 397.25 54.44 397.25 C52.2 395.41 52.2 395.41 50.69 392.88 C50.13 391.96 49.58 391.04 49 390.1 C48.49 389.16 47.97 388.22 47.44 387.25 C46.95 386.41 46.47 385.57 45.96 384.71 C40.39 374.47 40.14 364.74 40.44 353.25 C37.14 353.25 33.84 353.25 30.44 353.25 C30.44 346.65 30.44 340.05 30.44 333.25 C27.47 333.25 24.5 333.25 21.44 333.25 C21.44 329.95 21.44 326.65 21.44 323.25 C18.14 323.25 14.84 323.25 11.44 323.25 C11.44 316.65 11.44 310.05 11.44 303.25 C8.47 303.25 5.5 303.25 2.44 303.25 C2.44 296.98 2.44 290.71 2.44 284.25 C-0.53 284.25 -3.5 284.25 -6.56 284.25 C-6.56 280.95 -6.56 277.65 -6.56 274.25 C-9.86 274.25 -13.16 274.25 -16.56 274.25 C-16.56 267.65 -16.56 261.05 -16.56 254.25 C-19.53 254.25 -22.5 254.25 -25.56 254.25 C-25.56 249.3 -25.56 244.35 -25.56 239.25 C-27.09 239.44 -28.61 239.62 -30.19 239.81 C-33.52 239.82 -34.98 239.79 -37.46 237.49 C-39.03 235.15 -40.32 232.79 -41.56 230.25 C-42.18 229.18 -42.8 228.11 -43.44 227 C-45.11 221.44 -44.8 216.01 -44.56 210.25 C-47.53 210.25 -50.5 210.25 -53.56 210.25 C-53.56 213.55 -53.56 216.85 -53.56 220.25 C-56.53 220.25 -59.5 220.25 -62.56 220.25 C-62.56 298.13 -62.56 376.01 -62.56 456.25 C-65.86 456.25 -69.16 456.25 -72.56 456.25 C-72.56 459.55 -72.56 462.85 -72.56 466.25 C-75.53 466.25 -78.5 466.25 -81.56 466.25 C-81.56 469.55 -81.56 472.85 -81.56 476.25 C-92.78 476.25 -104 476.25 -115.56 476.25 C-115.56 472.95 -115.56 469.65 -115.56 466.25 C-118.53 466.25 -121.5 466.25 -124.56 466.25 C-124.56 462.95 -124.56 459.65 -124.56 456.25 C-127.86 456.25 -131.16 456.25 -134.56 456.25 C-134.56 449.65 -134.56 443.05 -134.56 436.25 C-137.53 436.25 -140.5 436.25 -143.56 436.25 C-143.56 433.28 -143.56 430.31 -143.56 427.25 C-146.86 427.25 -150.16 427.25 -153.56 427.25 C-153.56 420.65 -153.56 414.05 -153.56 407.25 C-156.53 407.25 -159.5 407.25 -162.56 407.25 C-162.56 400.65 -162.56 394.05 -162.56 387.25 C-165.86 387.25 -169.16 387.25 -172.56 387.25 C-174.92 385.1 -175.91 383.87 -177.38 381.19 C-177.77 380.53 -178.17 379.87 -178.57 379.2 C-179.45 377.72 -180.31 376.24 -181.15 374.74 C-182.68 372.03 -184.28 369.37 -185.87 366.7 C-195.97 349.58 -201.96 333.75 -205.56 314.25 C-208.53 313.92 -211.5 313.59 -214.56 313.25 C-214.56 306.98 -214.56 300.71 -214.56 294.25 C-217.53 294.25 -220.5 294.25 -223.56 294.25 C-223.56 290.95 -223.56 287.65 -223.56 284.25 C-226.86 284.25 -230.16 284.25 -233.56 284.25 C-233.56 277.65 -233.56 271.05 -233.56 264.25 C-236.53 264.25 -239.5 264.25 -242.56 264.25 C-242.56 260.95 -242.56 257.65 -242.56 254.25 C-245.86 254.25 -249.16 254.25 -252.56 254.25 C-252.56 249.3 -252.56 244.35 -252.56 239.25 C-255.53 239.25 -258.5 239.25 -261.56 239.25 C-261.56 232.98 -261.56 226.71 -261.56 220.25 C-266.18 220.25 -270.8 220.25 -275.56 220.25 C-276.55 223.22 -276.55 223.22 -277.56 226.25 C-278.22 227.57 -278.88 228.89 -279.56 230.25 C-282.86 230.25 -286.16 230.25 -289.56 230.25 C-289.56 304.83 -289.56 379.41 -289.56 456.25 C-295.5 456.25 -301.44 456.25 -307.56 456.25 C-307.56 459.55 -307.56 462.85 -307.56 466.25 C-354.75 466.25 -401.94 466.25 -450.56 466.25 C-450.56 462.95 -450.56 459.65 -450.56 456.25 C-453.53 456.25 -456.5 456.25 -459.56 456.25 C-459.56 452.95 -459.56 449.65 -459.56 446.25 C-462.86 446.25 -466.16 446.25 -469.56 446.25 C-469.56 428.1 -469.56 409.95 -469.56 391.25 C-466.26 391.25 -462.96 391.25 -459.56 391.25 C-459.56 387.95 -459.56 384.65 -459.56 381.25 C-456.59 381.25 -453.62 381.25 -450.56 381.25 C-450.56 380.21 -450.56 380.21 -450.55 379.14 C-449.64 355.01 -437.9 332.99 -426.56 312.25 C-423.59 312.25 -420.62 312.25 -417.56 312.25 C-417.56 305.98 -417.56 299.71 -417.56 293.25 C-414.26 293.25 -410.96 293.25 -407.56 293.25 C-407.56 288.3 -407.56 283.35 -407.56 278.25 C-404.59 278.25 -401.62 278.25 -398.56 278.25 C-398.56 273.3 -398.56 268.35 -398.56 263.25 C-395.59 263.25 -392.62 263.25 -389.56 263.25 C-389.56 258.3 -389.56 253.35 -389.56 248.25 C-386.26 248.25 -382.96 248.25 -379.56 248.25 C-379.56 241.98 -379.56 235.71 -379.56 229.25 C-376.59 229.25 -373.62 229.25 -370.56 229.25 C-370.56 222.65 -370.56 216.05 -370.56 209.25 C-367.26 209.25 -363.96 209.25 -360.56 209.25 C-360.56 205.95 -360.56 202.65 -360.56 199.25 C-357.59 199.25 -354.62 199.25 -351.56 199.25 C-351.56 192.65 -351.56 186.05 -351.56 179.25 C-348.26 179.25 -344.96 179.25 -341.56 179.25 C-341.56 172.98 -341.56 166.71 -341.56 160.25 C-338.59 160.25 -335.62 160.25 -332.56 160.25 C-332.44 159.44 -332.32 158.63 -332.2 157.79 C-329 136.69 -329 136.69 -327.56 135.25 C-324.59 135.25 -321.62 135.25 -318.56 135.25 C-318.56 128.65 -318.56 122.05 -318.56 115.25 C-315.26 115.25 -311.96 115.25 -308.56 115.25 C-308.45 114.1 -308.33 112.95 -308.21 111.76 C-307.66 107.36 -306.54 103.28 -305.19 99.06 C-304.98 98.38 -304.77 97.69 -304.55 96.99 C-303.95 95.06 -303.26 93.15 -302.56 91.25 C-302.22 90.26 -301.88 89.28 -301.52 88.26 C-300.88 87.6 -300.23 86.93 -299.56 86.25 C-296.26 86.25 -292.96 86.25 -289.56 86.25 C-289.56 79.65 -289.56 73.05 -289.56 66.25 C-286.59 66.25 -283.62 66.25 -280.56 66.25 C-280.56 59.65 -280.56 53.05 -280.56 46.25 C-277.26 46.25 -273.96 46.25 -270.56 46.25 C-270.48 45.03 -270.4 43.82 -270.31 42.56 C-269.34 33.78 -266.28 25.24 -262.56 17.25 C-259.26 17.25 -255.96 17.25 -252.56 17.25 C-252.56 12.3 -252.56 7.35 -252.56 2.25 C-231.77 2.25 -210.98 2.25 -189.56 2.25 C-189.56 7.2 -189.56 12.15 -189.56 17.25 C-188.2 17.06 -186.84 16.88 -185.44 16.69 C-182.28 16.68 -181.04 16.79 -178.73 19.01 C-177.16 21.36 -175.83 23.73 -174.56 26.25 C-173.94 27.32 -173.32 28.39 -172.69 29.5 C-171.02 35.06 -171.33 40.49 -171.56 46.25 C-168.26 46.25 -164.96 46.25 -161.56 46.25 C-161.56 52.85 -161.56 59.45 -161.56 66.25 C-158.59 66.25 -155.62 66.25 -152.56 66.25 C-152.56 72.85 -152.56 79.45 -152.56 86.25 C-149.26 86.25 -145.96 86.25 -142.56 86.25 C-142.56 89.55 -142.56 92.85 -142.56 96.25 C-139.59 96.25 -136.62 96.25 -133.56 96.25 C-133.56 102.52 -133.56 108.79 -133.56 115.25 C-130.26 115.25 -126.96 115.25 -123.56 115.25 C-123.56 121.85 -123.56 128.45 -123.56 135.25 C-114.65 135.25 -105.74 135.25 -96.56 135.25 C-96.56 128.65 -96.56 122.05 -96.56 115.25 C-93.26 115.25 -89.96 115.25 -86.56 115.25 C-86.46 114.28 -86.35 113.31 -86.24 112.3 C-85.59 107.8 -84.2 103.65 -82.69 99.38 C-82.24 98.1 -82.24 98.1 -81.78 96.8 C-76.78 82.98 -71.16 68.87 -63.56 56.25 C-60.59 56.25 -57.62 56.25 -54.56 56.25 C-54.56 49.65 -54.56 43.05 -54.56 36.25 C-51.26 36.25 -47.96 36.25 -44.56 36.25 C-44.5 35.01 -44.44 33.77 -44.38 32.5 C-43.1 21.43 -37.49 11.65 -29.32 4.21 C-21.53 -1.32 -9.19 -0.06 0 0 Z " fill="#FEFEFE" transform="translate(2289.5625,233.75)"/>
<path d="M0 0 C23.33 -0.55 23.33 -0.55 33.29 4.16 C34.25 4.61 34.25 4.61 35.23 5.07 C39.98 7.32 44.63 9.72 49.29 12.16 C51.93 13.48 54.57 14.8 57.29 16.16 C57.29 123.74 57.29 231.32 57.29 342.16 C60.59 342.16 63.89 342.16 67.29 342.16 C67.29 345.46 67.29 348.76 67.29 352.16 C73.23 352.16 79.17 352.16 85.29 352.16 C85.29 348.86 85.29 345.56 85.29 342.16 C91.56 342.16 97.83 342.16 104.29 342.16 C104.29 338.86 104.29 335.56 104.29 332.16 C110.56 332.16 116.83 332.16 123.29 332.16 C123.29 328.86 123.29 325.56 123.29 322.16 C126.26 322.16 129.23 322.16 132.29 322.16 C132.29 318.86 132.29 315.56 132.29 312.16 C136.91 312.16 141.53 312.16 146.29 312.16 C146.29 308.86 146.29 305.56 146.29 302.16 C152.56 302.16 158.83 302.16 165.29 302.16 C165.05 300.67 164.8 299.18 164.55 297.65 C164.56 293.95 164.81 292.64 167.46 289.99 C170.59 287.89 173.78 286.07 177.1 284.28 C178.2 283.65 179.3 283.01 180.44 282.35 C197.99 272.41 197.99 272.41 207.48 272.91 C208.4 272.94 209.32 272.98 210.27 273.02 C210.94 273.06 211.6 273.11 212.29 273.16 C212.06 272.28 211.83 271.4 211.59 270.5 C209.36 261.82 207.38 253.11 205.54 244.35 C205.32 243.29 205.1 242.23 204.87 241.15 C204.66 240.15 204.46 239.16 204.24 238.14 C204.06 237.25 203.88 236.36 203.69 235.45 C203.29 233.16 203.29 233.16 203.29 230.16 C199.99 230.16 196.69 230.16 193.29 230.16 C191.98 227.89 190.66 225.62 189.35 223.35 C188.98 222.7 188.61 222.06 188.22 221.4 C185.15 216.06 184.17 212.61 184.23 206.47 C184.24 204.7 184.24 204.7 184.26 202.9 C184.27 201.54 184.27 201.54 184.29 200.16 C180.99 200.16 177.69 200.16 174.29 200.16 C174.29 193.56 174.29 186.96 174.29 180.16 C171.32 180.16 168.35 180.16 165.29 180.16 C165.29 173.89 165.29 167.62 165.29 161.16 C162.32 161.16 159.35 161.16 156.29 161.16 C153.94 159.25 153.94 159.25 152.23 156.54 C151.58 155.54 150.93 154.53 150.26 153.49 C149.61 152.39 148.96 151.29 148.29 150.16 C147.63 149.05 146.97 147.93 146.3 146.79 C144.22 143.22 142.25 139.6 140.29 135.97 C139.59 134.68 138.89 133.4 138.18 132.11 C123.11 104.44 123.11 104.44 123.23 94.47 C123.23 93.77 123.24 93.07 123.24 92.34 C123.25 90.61 123.27 88.89 123.29 87.16 C119.99 87.16 116.69 87.16 113.29 87.16 C113.29 80.56 113.29 73.96 113.29 67.16 C110.32 67.16 107.35 67.16 104.29 67.16 C104.29 50.66 104.29 34.16 104.29 17.16 C107.26 17.16 110.23 17.16 113.29 17.16 C113.29 13.86 113.29 10.56 113.29 7.16 C119.46 4.95 125.35 3.4 131.83 2.5 C132.74 2.37 133.64 2.24 134.57 2.11 C145.56 0.71 156.54 0.7 167.61 0.72 C169.88 0.72 172.16 0.71 174.44 0.71 C179.17 0.7 183.9 0.7 188.64 0.71 C194.65 0.72 200.66 0.7 206.67 0.67 C211.35 0.66 216.04 0.66 220.73 0.66 C222.95 0.66 225.16 0.66 227.37 0.64 C271.54 0.43 271.54 0.43 285.4 13.09 C289.72 18.93 291.53 26.2 293.29 33.16 C293.56 34.21 293.56 34.21 293.83 35.28 C294.47 39.27 294.43 43.18 294.42 47.21 C294.42 48.12 294.42 49.04 294.42 49.98 C294.43 53.05 294.42 56.11 294.42 59.18 C294.42 61.37 294.42 63.57 294.43 65.77 C294.43 71.75 294.43 77.74 294.43 83.72 C294.42 90.01 294.43 96.3 294.43 102.6 C294.43 113.88 294.43 125.16 294.42 136.43 C294.42 146.58 294.42 156.73 294.42 166.88 C294.43 178.71 294.43 190.54 294.43 202.37 C294.42 208.61 294.42 214.85 294.43 221.09 C294.44 248.47 294.29 275.8 293.29 303.16 C290.32 303.16 287.35 303.16 284.29 303.16 C284.36 304.5 284.44 305.84 284.51 307.22 C284.76 311.97 284.98 316.71 285.18 321.46 C285.25 323.09 285.32 324.73 285.4 326.37 C286.13 341.4 282.69 354.14 275.29 367.16 C271.99 367.16 268.69 367.16 265.29 367.16 C265.29 372.11 265.29 377.06 265.29 382.16 C262.32 382.16 259.35 382.16 256.29 382.16 C256.29 387.11 256.29 392.06 256.29 397.16 C252.99 397.16 249.69 397.16 246.29 397.16 C246.13 398.19 246.13 398.19 245.96 399.25 C244.91 405.48 243.43 411.22 241.29 417.16 C238.32 417.16 235.35 417.16 232.29 417.16 C232.29 420.46 232.29 423.76 232.29 427.16 C229.32 427.16 226.35 427.16 223.29 427.16 C223.29 430.13 223.29 433.1 223.29 436.16 C217.02 436.16 210.75 436.16 204.29 436.16 C204.29 439.46 204.29 442.76 204.29 446.16 C198.02 446.16 191.75 446.16 185.29 446.16 C185.29 449.46 185.29 452.76 185.29 456.16 C179.02 456.16 172.75 456.16 166.29 456.16 C166.29 459.46 166.29 462.76 166.29 466.16 C157.05 466.16 147.81 466.16 138.29 466.16 C138.29 469.46 138.29 472.76 138.29 476.16 C58.58 478.4 58.58 478.4 38.29 466.16 C38.29 462.86 38.29 459.56 38.29 456.16 C30.37 456.16 22.45 456.16 14.29 456.16 C14.29 452.86 14.29 449.56 14.29 446.16 C8.02 446.16 1.75 446.16 -4.71 446.16 C-4.71 442.86 -4.71 439.56 -4.71 436.16 C-7.68 436.16 -10.65 436.16 -13.71 436.16 C-13.71 433.19 -13.71 430.22 -13.71 427.16 C-19.98 427.16 -26.25 427.16 -32.71 427.16 C-32.71 423.86 -32.71 420.56 -32.71 417.16 C-36.01 417.16 -39.31 417.16 -42.71 417.16 C-42.71 410.56 -42.71 403.96 -42.71 397.16 C-45.68 397.16 -48.65 397.16 -51.71 397.16 C-51.71 393.86 -51.71 390.56 -51.71 387.16 C-54.68 387.16 -57.65 387.16 -60.71 387.16 C-60.71 383.86 -60.71 380.56 -60.71 377.16 C-64.01 377.16 -67.31 377.16 -70.71 377.16 C-79.39 362.16 -84.26 345 -87.58 328.1 C-87.77 327.14 -87.97 326.19 -88.16 325.21 C-91.72 305.68 -92.01 285.85 -91.98 266.07 C-91.99 263.55 -91.99 261.02 -92 258.5 C-92.01 252.42 -92.01 246.34 -92.01 240.26 C-92.01 235.31 -92.01 230.36 -92.02 225.42 C-92.02 224.71 -92.02 224 -92.02 223.27 C-92.02 221.83 -92.02 220.39 -92.02 218.95 C-92.03 205.5 -92.03 192.06 -92.02 178.62 C-92.02 166.35 -92.03 154.08 -92.05 141.81 C-92.07 129.16 -92.08 116.51 -92.07 103.86 C-92.07 96.77 -92.07 89.69 -92.09 82.61 C-92.1 75.96 -92.1 69.31 -92.08 62.66 C-92.08 60.23 -92.09 57.79 -92.09 55.36 C-92.2 22.09 -92.2 22.09 -82.71 12.16 C-71.75 3.3 -57.46 1.09 -43.79 0.84 C-42.83 0.82 -41.87 0.8 -40.87 0.78 C-37.76 0.71 -34.64 0.65 -31.52 0.6 C-30.46 0.58 -29.4 0.56 -28.31 0.53 C-23.02 0.44 -17.74 0.34 -12.45 0.26 C-8.3 0.19 -4.15 0.1 0 0 Z " fill="#FEFEFE" transform="translate(3659.7088317871094,233.84239196777344)"/>
<path d="M0 0 C1.14 -0 2.27 -0 3.45 -0 C7.29 -0.01 11.13 -0 14.97 0.01 C16.33 0.01 17.68 0.01 19.04 0.01 C29.53 0.03 40.01 0.07 50.49 0.12 C53.64 0.13 56.78 0.15 59.93 0.16 C73.04 0.21 86.14 0.28 99.25 0.37 C105.29 0.41 111.34 0.45 117.38 0.48 C123.16 0.5 128.94 0.55 134.71 0.6 C136.86 0.61 139.01 0.62 141.15 0.63 C158.32 0.69 176 0.88 189.47 13.13 C200.22 30.07 198.92 49.95 198.47 69.13 C198.45 69.91 198.43 70.69 198.41 71.49 C198.15 83.04 197.83 94.59 197.47 106.13 C194.17 106.13 190.87 106.13 187.47 106.13 C187.37 107.41 187.26 108.69 187.16 110.01 C186.21 118.26 184.62 125.2 178.47 131.13 C175.69 131.8 173.76 132.02 170.97 132.01 C170.19 132.02 169.41 132.03 168.61 132.04 C160.23 132.14 151.84 132.16 143.46 132.15 C142.67 132.15 141.89 132.15 141.08 132.15 C118.95 132.15 96.82 132.04 74.7 131.93 C68.69 131.9 62.67 131.87 56.66 131.85 C45.35 131.79 34.03 131.74 22.71 131.69 C9.8 131.63 -3.11 131.57 -16.03 131.51 C-42.53 131.38 -69.03 131.26 -95.53 131.13 C-95.53 134.43 -95.53 137.73 -95.53 141.13 C-98.5 141.13 -101.47 141.13 -104.53 141.13 C-104.53 144.1 -104.53 147.07 -104.53 150.13 C-101.56 150.13 -98.59 150.13 -95.53 150.13 C-95.53 156.4 -95.53 162.67 -95.53 169.13 C-92.23 169.13 -88.93 169.13 -85.53 169.13 C-85.53 172.43 -85.53 175.73 -85.53 179.13 C-82.56 179.13 -79.59 179.13 -76.53 179.13 C-76.53 185.73 -76.53 192.33 -76.53 199.13 C-73.23 199.13 -69.93 199.13 -66.53 199.13 C-66.53 205.73 -66.53 212.33 -66.53 219.13 C-63.56 219.13 -60.59 219.13 -57.53 219.13 C-57.53 225.4 -57.53 231.67 -57.53 238.13 C-54.23 238.13 -50.93 238.13 -47.53 238.13 C-47.53 244.73 -47.53 251.33 -47.53 258.13 C-44.56 258.13 -41.59 258.13 -38.53 258.13 C-38.53 261.43 -38.53 264.73 -38.53 268.13 C-35.23 268.13 -31.93 268.13 -28.53 268.13 C-26.44 272.24 -24.36 276.34 -22.29 280.46 C-21.58 281.85 -20.88 283.24 -20.17 284.64 C-10.05 304.5 -10.05 304.5 -10.34 315.2 C-10.38 317.16 -10.38 317.16 -10.43 319.17 C-10.46 320.15 -10.5 321.12 -10.53 322.13 C-7.23 322.13 -3.93 322.13 -0.53 322.13 C-0.53 328.73 -0.53 335.33 -0.53 342.13 C2.44 342.13 5.41 342.13 8.47 342.13 C10.18 348.43 11.22 354.68 12.09 361.13 C12.23 362.1 12.36 363.06 12.5 364.06 C12.83 366.42 13.15 368.77 13.47 371.13 C16.44 371.13 19.41 371.13 22.47 371.13 C22.47 377.73 22.47 384.33 22.47 391.13 C23.96 391.41 25.45 391.69 26.99 391.97 C28.94 392.34 30.89 392.7 32.84 393.07 C33.83 393.25 34.81 393.44 35.83 393.62 C36.77 393.8 37.71 393.98 38.68 394.16 C39.98 394.4 39.98 394.4 41.31 394.65 C43.47 395.13 43.47 395.13 45.47 396.13 C45.46 395.53 45.46 394.94 45.45 394.32 C45.29 370.75 45.83 347.2 46.34 323.63 C46.43 319.4 46.52 315.17 46.6 310.94 C46.85 298.9 47.12 286.87 47.41 274.84 C47.47 272.23 47.52 269.62 47.58 267.01 C47.67 263.16 47.76 259.3 47.86 255.45 C47.91 253.46 47.95 251.46 47.99 249.46 C48.34 237.02 50.1 226.4 55.47 215.13 C55.96 213.94 56.46 212.74 56.97 211.51 C63.28 205.51 74.6 207.04 82.82 207.07 C83.85 207.07 84.88 207.07 85.94 207.07 C99.32 207.12 112.69 207.31 126.07 207.51 C129.05 207.55 132.02 207.59 135 207.63 C152.51 207.86 169.98 208.27 187.47 209.13 C187.47 215.73 187.47 222.33 187.47 229.13 C190.77 229.13 194.07 229.13 197.47 229.13 C197.47 297.44 197.47 365.75 197.47 436.13 C194.17 436.13 190.87 436.13 187.47 436.13 C187.62 437.56 187.77 438.98 187.93 440.45 C189 454.84 189 454.84 186.31 458.88 C179.39 465.2 169.08 467.38 160.01 467.39 C158.93 467.4 158.93 467.4 157.83 467.41 C155.45 467.42 153.06 467.41 150.67 467.41 C148.95 467.41 147.23 467.42 145.51 467.42 C140.84 467.44 136.17 467.44 131.51 467.43 C127.6 467.43 123.69 467.44 119.78 467.44 C110.53 467.45 101.29 467.45 92.04 467.45 C82.56 467.44 73.07 467.45 63.58 467.48 C55.4 467.49 47.23 467.5 39.05 467.5 C34.18 467.49 29.31 467.5 24.44 467.51 C1.06 467.57 -21.37 467.41 -44.09 461.07 C-45.06 460.81 -46.03 460.56 -47.03 460.29 C-51.17 459.18 -54.67 458.07 -58.53 456.13 C-58.53 452.83 -58.53 449.53 -58.53 446.13 C-59.52 446.46 -60.51 446.79 -61.53 447.13 C-76.13 448.36 -88.24 444.58 -100.53 437.13 C-100.53 433.83 -100.53 430.53 -100.53 427.13 C-103.83 427.13 -107.13 427.13 -110.53 427.13 C-110.53 423.83 -110.53 420.53 -110.53 417.13 C-116.8 417.13 -123.07 417.13 -129.53 417.13 C-129.53 413.83 -129.53 410.53 -129.53 407.13 C-132.5 407.13 -135.47 407.13 -138.53 407.13 C-138.53 403.83 -138.53 400.53 -138.53 397.13 C-141.5 397.13 -144.47 397.13 -147.53 397.13 C-147.53 393.83 -147.53 390.53 -147.53 387.13 C-150.83 387.13 -154.13 387.13 -157.53 387.13 C-157.53 382.18 -157.53 377.23 -157.53 372.13 C-160.5 372.13 -163.47 372.13 -166.53 372.13 C-166.53 369.16 -166.53 366.19 -166.53 363.13 C-169.83 363.13 -173.13 363.13 -176.53 363.13 C-176.53 356.53 -176.53 349.93 -176.53 343.13 C-179.5 343.13 -182.47 343.13 -185.53 343.13 C-185.53 336.53 -185.53 329.93 -185.53 323.13 C-188.83 323.13 -192.13 323.13 -195.53 323.13 C-200.43 293.9 -201.12 264.7 -201.53 235.13 C-201.55 233.88 -201.55 233.88 -201.57 232.61 C-202.08 195.93 -200.65 159.22 -185.53 125.13 C-182.56 125.13 -179.59 125.13 -176.53 125.13 C-176.53 118.53 -176.53 111.93 -176.53 105.13 C-173.23 105.13 -169.93 105.13 -166.53 105.13 C-166.53 102.16 -166.53 99.19 -166.53 96.13 C-163.56 96.13 -160.59 96.13 -157.53 96.13 C-157.53 89.53 -157.53 82.93 -157.53 76.13 C-154.23 76.13 -150.93 76.13 -147.53 76.13 C-147.53 72.83 -147.53 69.53 -147.53 66.13 C-144.56 66.13 -141.59 66.13 -138.53 66.13 C-138.53 62.83 -138.53 59.53 -138.53 56.13 C-132.26 56.13 -125.99 56.13 -119.53 56.13 C-119.53 52.83 -119.53 49.53 -119.53 46.13 C-116.56 46.13 -113.59 46.13 -110.53 46.13 C-110.53 42.83 -110.53 39.53 -110.53 36.13 C-102.37 31.43 -94.19 26.75 -86 22.1 C-83.95 20.94 -81.89 19.77 -79.84 18.59 C-55.54 4.67 -27.81 -0.05 0 0 Z " fill="#FEFEFE" transform="translate(1213.53125,233.8671875)"/>
<path d="M0 0 C74.91 0 149.82 0 227 0 C227 3.3 227 6.6 227 10 C228.09 10.09 229.17 10.19 230.29 10.28 C235.85 10.98 241.01 12.74 246.31 14.5 C247.3 14.82 248.29 15.14 249.31 15.47 C252.88 16.63 256.44 17.81 260 19 C260 22.3 260 25.6 260 29 C266.27 29 272.54 29 279 29 C279 32.3 279 35.6 279 39 C282.3 39 285.6 39 289 39 C288.9 40.51 288.79 42.01 288.69 43.56 C288.83 46.38 288.83 46.38 290 49 C293.01 51.24 296.1 52.7 299.5 54.29 C304.65 56.81 308.74 60.22 313 64 C313.64 64.55 314.27 65.11 314.93 65.68 C335.48 84.77 340.88 116.46 342.09 143.01 C342.44 153.09 342.35 163.18 342.27 173.26 C342.24 176.39 342.23 179.51 342.22 182.64 C342.18 191.06 342.12 199.49 342.04 207.91 C342 211.62 341.98 215.33 341.95 219.04 C341.92 223.91 341.87 228.78 341.79 233.64 C341.76 235.3 341.74 236.95 341.73 238.6 C341.61 251.56 340.12 264.64 336 277 C332.7 277 329.4 277 326 277 C325.92 278.44 325.84 279.89 325.75 281.38 C324.51 292.43 324.51 292.43 321 297 C316.69 299.28 311.93 301 307 301 C307 307.6 307 314.2 307 321 C304.03 321 301.06 321 298 321 C298 324.3 298 327.6 298 331 C295.03 331 292.06 331 289 331 C289 334.3 289 337.6 289 341 C282.73 341 276.46 341 270 341 C270 343.97 270 346.94 270 350 C266.7 350 263.4 350 260 350 C260 353.3 260 356.6 260 360 C253.73 360 247.46 360 241 360 C241 363.3 241 366.6 241 370 C230.11 370 219.22 370 208 370 C208 373.3 208 376.6 208 380 C192.49 380 176.98 380 161 380 C161 397.82 161 415.64 161 434 C158.03 434 155.06 434 152 434 C152 437.3 152 440.6 152 444 C95.57 444 39.14 444 -19 444 C-19 303.75 -19 163.5 -19 19 C-16.03 19 -13.06 19 -10 19 C-10 16.03 -10 13.06 -10 10 C-6.7 10 -3.4 10 0 10 C0 6.7 0 3.4 0 0 Z M161 55 C161 61.6 161 68.2 161 75 C158.03 75 155.06 75 152 75 C152 81.27 152 87.54 152 94 C148.7 94 145.4 94 142 94 C142 100.6 142 107.2 142 114 C139.03 114 136.06 114 133 114 C130.93 115.56 130.93 115.56 129.93 118.05 C129.46 118.97 128.99 119.88 128.51 120.83 C128.01 121.87 127.51 122.92 127 124 C126.07 125.78 125.13 127.56 124.19 129.33 C122.47 132.6 120.8 135.9 119.12 139.19 C118.11 141.17 117.1 143.15 116.08 145.13 C115.41 146.44 114.74 147.76 114.06 149.08 C112.35 152.43 110.6 155.76 108.78 159.06 C108.42 159.72 108.06 160.39 107.68 161.07 C107 162.31 106.31 163.56 105.61 164.8 C101.68 171.97 100 179.84 100 188 C96.7 188 93.4 188 90 188 C90 194.6 90 201.2 90 208 C87.03 208 84.06 208 81 208 C81 214.27 81 220.54 81 227 C78.03 227 75.06 227 72 227 C72 233.6 72 240.2 72 247 C68.7 247 65.4 247 62 247 C62 249.97 62 252.94 62 256 C68.27 256 74.54 256 81 256 C81 259.3 81 262.6 81 266 C85.1 267.51 89.21 269 93.31 270.5 C94.48 270.93 95.65 271.36 96.85 271.8 C97.97 272.21 99.09 272.61 100.24 273.03 C101.79 273.6 101.79 273.6 103.36 274.17 C106.02 275.15 106.02 275.15 109 275 C109 278.3 109 281.6 109 285 C113.62 285 118.24 285 123 285 C123 288.3 123 291.6 123 295 C129.27 295 135.54 295 142 295 C142 298.3 142 301.6 142 305 C148.56 307.87 155.19 310.54 161.94 312.94 C163.78 313.6 163.78 313.6 165.65 314.28 C169.44 315.1 170.67 314.85 174 313 C175.29 312.52 175.29 312.52 176.61 312.02 C179.12 310.3 179.12 310.3 179.46 308.12 C179.64 305.51 179.64 302.95 179.6 300.34 C179.61 299.34 179.61 298.33 179.61 297.3 C179.62 293.92 179.59 290.55 179.57 287.17 C179.57 284.75 179.57 282.34 179.57 279.93 C179.57 274.72 179.56 269.52 179.53 264.31 C179.49 256.78 179.47 249.26 179.47 241.73 C179.46 229.52 179.42 217.31 179.38 205.1 C179.33 193.24 179.3 181.37 179.27 169.51 C179.27 168.78 179.27 168.05 179.27 167.3 C179.26 163.63 179.26 159.96 179.25 156.29 C179.2 125.86 179.11 95.43 179 65 C176.03 65 173.06 65 170 65 C170 61.7 170 58.4 170 55 C167.03 55 164.06 55 161 55 Z " fill="#FEFEFE" transform="translate(4028,320)"/>
<path d="M0 0 C75.24 0 150.48 0 228 0 C228 3.3 228 6.6 228 10 C230.97 10 233.94 10 237 10 C237 16.27 237 22.54 237 29 C240.3 29 243.6 29 247 29 C247 34.28 247 39.56 247 45 C243.7 45 240.4 45 237 45 C237 54.9 237 64.8 237 75 C233.7 75 230.4 75 227 75 C226.92 76.22 226.84 77.43 226.75 78.69 C225.74 87.7 222.95 96.4 218 104 C215.03 104 212.06 104 209 104 C209 110.6 209 117.2 209 124 C205.7 124 202.4 124 199 124 C198.83 125.73 198.83 125.73 198.65 127.49 C198.1 131.89 196.98 135.97 195.62 140.19 C195.42 140.87 195.21 141.56 194.99 142.26 C193.76 146.16 192.6 149.82 190 153 C186.56 153.68 183.53 153.23 180 153 C180 157.95 180 162.9 180 168 C177.03 168 174.06 168 171 168 C171 174.6 171 181.2 171 188 C168.03 188 165.06 188 162 188 C162 191.3 162 194.6 162 198 C158.7 198 155.4 198 152 198 C152 204.27 152 210.54 152 217 C149.03 217 146.06 217 143 217 C143 226.57 143 236.14 143 246 C148.72 245.75 148.72 245.75 154.56 245.5 C164.54 245.11 174.51 244.87 184.49 244.82 C186.45 244.81 188.42 244.79 190.38 244.77 C200.92 244.76 210.16 245.54 219.56 250.5 C220.16 250.81 220.77 251.12 221.38 251.43 C223.93 252.76 225.96 253.96 228 256 C228.23 258.06 228.23 258.06 228.2 260.57 C228.19 261.47 228.18 262.36 228.18 263.29 C228.16 264.22 228.14 265.16 228.12 266.12 C228.12 267.07 228.11 268.01 228.1 268.99 C228.07 271.33 228.04 273.66 228 276 C230.97 276 233.94 276 237 276 C237 300.42 237 324.84 237 350 C234.03 350 231.06 350 228 350 C228.17 352.04 228.17 352.04 228.35 354.13 C229.2 368.21 229.2 368.21 226.16 372.75 C223.45 374.67 221.12 375.83 218 377 C217.36 377.32 216.73 377.65 216.07 377.98 C206.03 382.53 195.13 381.52 184.35 381.43 C182.09 381.42 179.82 381.42 177.56 381.42 C171.5 381.41 165.44 381.37 159.38 381.33 C154.37 381.31 149.36 381.29 144.35 381.28 C102.57 381.16 60.78 380.73 19 380 C19 376.7 19 373.4 19 370 C6.46 370 -6.08 370 -19 370 C-19 366.7 -19 363.4 -19 360 C-24.94 360 -30.88 360 -37 360 C-37 356.7 -37 353.4 -37 350 C-40.3 350 -43.6 350 -47 350 C-47 347.03 -47 344.06 -47 341 C-53.27 341 -59.54 341 -66 341 C-66 337.7 -66 334.4 -66 331 C-68.97 331 -71.94 331 -75 331 C-75 327.7 -75 324.4 -75 321 C-77.17 321.4 -77.17 321.4 -79.38 321.81 C-83.5 321.84 -84.73 321.26 -87.79 318.39 C-95.99 308.43 -99.22 298.84 -99 286 C-101.97 286 -104.94 286 -108 286 C-108 279.73 -108 273.46 -108 267 C-111.3 267 -114.6 267 -118 267 C-118 260.4 -118 253.8 -118 247 C-120.97 247 -123.94 247 -127 247 C-127 209.38 -127 171.76 -127 133 C-124.03 133 -121.06 133 -118 133 C-118 123.1 -118 113.2 -118 103 C-114.7 103 -111.4 103 -108 103 C-108 96.4 -108 89.8 -108 83 C-103.55 82.5 -103.55 82.5 -99 82 C-97.35 76.06 -95.7 70.12 -94 64 C-91.03 64 -88.06 64 -85 64 C-85 60.7 -85 57.4 -85 54 C-82.21 53.16 -79.42 52.33 -76.62 51.5 C-75.83 51.26 -75.04 51.02 -74.22 50.78 C-73.46 50.55 -72.7 50.33 -71.91 50.09 C-71.21 49.88 -70.51 49.67 -69.79 49.46 C-68 49 -68 49 -66 49 C-66 45.7 -66 42.4 -66 39 C-62.7 39 -59.4 39 -56 39 C-56 35.7 -56 32.4 -56 29 C-49.73 29 -43.46 29 -37 29 C-37 25.7 -37 22.4 -37 19 C-31.06 19 -25.12 19 -19 19 C-19 16.03 -19 13.06 -19 10 C-12.73 10 -6.46 10 0 10 C0 6.7 0 3.4 0 0 Z M53 94 C53 97.3 53 100.6 53 104 C50.03 104 47.06 104 44 104 C44 107.3 44 110.6 44 114 C40.7 114 37.4 114 34 114 C34 120.6 34 127.2 34 134 C31.03 134 28.06 134 25 134 C21.73 141.82 19.01 149.77 16.43 157.83 C15.74 159.96 15.05 162.08 14.36 164.21 C13.92 165.56 13.48 166.92 13.05 168.28 C12.46 170.11 12.46 170.11 11.85 171.97 C10.86 174.96 10.86 174.96 11 178 C7.7 178 4.4 178 1 178 C1 184.6 1 191.2 1 198 C-1.97 198 -4.94 198 -8 198 C-8 204.27 -8 210.54 -8 217 C-11.3 217 -14.6 217 -18 217 C-18 226.57 -18 236.14 -18 246 C11.37 246 40.74 246 71 246 C71 195.84 71 145.68 71 94 C65.06 94 59.12 94 53 94 Z " fill="#FEFEFE" transform="translate(3037,320)"/>
<path d="M0 0 C75.24 0 150.48 0 228 0 C228 3.3 228 6.6 228 10 C230.97 10 233.94 10 237 10 C237 31.45 237 52.9 237 75 C234.03 75 231.06 75 228 75 C228 77.97 228 80.94 228 84 C224.7 84 221.4 84 218 84 C218 90.6 218 97.2 218 104 C215.03 104.33 212.06 104.66 209 105 C208.7 106.26 208.39 107.51 208.08 108.8 C205.86 117.76 203.63 125.93 199 134 C196.03 134 193.06 134 190 134 C190 140.27 190 146.54 190 153 C186.7 153 183.4 153 180 153 C180 157.95 180 162.9 180 168 C177.03 168 174.06 168 171 168 C171 171.3 171 174.6 171 178 C167.7 178 164.4 178 161 178 C161.03 179.12 161.07 180.25 161.1 181.4 C161.1 186.25 160.33 190.82 159.38 195.56 C159.2 196.43 159.03 197.3 158.85 198.2 C156.65 208.45 152.75 217.66 148 227 C144.7 227 141.4 227 138 227 C138 233.27 138 239.54 138 246 C161.43 246 184.86 246 209 246 C209 249.3 209 252.6 209 256 C215.27 256 221.54 256 228 256 C228 293.62 228 331.24 228 370 C221.73 370 215.46 370 209 370 C209 373.3 209 376.6 209 380 C146.3 380 83.6 380 19 380 C19 376.7 19 373.4 19 370 C6.46 370 -6.08 370 -19 370 C-19 366.7 -19 363.4 -19 360 C-25.27 360 -31.54 360 -38 360 C-38 356.7 -38 353.4 -38 350 C-43.94 350 -49.88 350 -56 350 C-56 347.03 -56 344.06 -56 341 C-59.3 341 -62.6 341 -66 341 C-66 337.7 -66 334.4 -66 331 C-68.97 331 -71.94 331 -75 331 C-76.86 326.84 -77.79 322.64 -78.62 318.19 C-78.83 317.15 -78.83 317.15 -79.03 316.09 C-79.36 314.39 -79.68 312.7 -80 311 C-82.97 311 -85.94 311 -89 311 C-89 307.7 -89 304.4 -89 301 C-92.3 301 -95.6 301 -99 301 C-99 296.05 -99 291.1 -99 286 C-101.97 286 -104.94 286 -108 286 C-108 279.73 -108 273.46 -108 267 C-111.3 267 -114.6 267 -118 267 C-118 260.4 -118 253.8 -118 247 C-120.97 247 -123.94 247 -127 247 C-127 209.38 -127 171.76 -127 133 C-124.03 133 -121.06 133 -118 133 C-118 123.1 -118 113.2 -118 103 C-114.7 103 -111.4 103 -108 103 C-108 96.4 -108 89.8 -108 83 C-105.03 83 -102.06 83 -99 83 C-98.93 82.26 -98.85 81.52 -98.77 80.76 C-97.07 67.59 -90.97 59.17 -81.82 49.9 C-79.67 47.66 -77.62 45.34 -75.55 43.02 C-62.6 28.82 -62.6 28.82 -56.66 27.79 C-53.22 27.81 -50.31 28.08 -47 29 C-47 25.7 -47 22.4 -47 19 C-40.73 19 -34.46 19 -28 19 C-28 16.03 -28 13.06 -28 10 C-18.76 10 -9.52 10 0 10 C0 6.7 0 3.4 0 0 Z M53 84 C53 90.6 53 97.2 53 104 C50.03 104 47.06 104 44 104 C44 107.3 44 110.6 44 114 C40.7 114 37.4 114 34 114 C33.68 114.77 33.36 115.54 33.03 116.33 C18.71 150.48 18.71 150.48 12.3 159.36 C10.51 162.99 10.67 166.37 10.81 170.31 C10.83 171.05 10.84 171.79 10.85 172.56 C10.89 174.37 10.94 176.19 11 178 C7.7 178 4.4 178 1 178 C1 184.6 1 191.2 1 198 C-2.3 198 -5.6 198 -9 198 C-11.41 202.79 -13.81 207.57 -16.21 212.36 C-17.03 213.99 -17.84 215.62 -18.66 217.25 C-19.84 219.59 -21.01 221.93 -22.18 224.27 C-22.55 225 -22.92 225.73 -23.29 226.48 C-27.11 234.11 -27 236.35 -27 246 C2.04 246 31.08 246 61 246 C61 242.7 61 239.4 61 236 C64.3 236 67.6 236 71 236 C71 189.14 71 142.28 71 94 C67.7 94 64.4 94 61 94 C61 90.7 61 87.4 61 84 C58.36 84 55.72 84 53 84 Z " fill="#FEFEFE" transform="translate(2655,320)"/>
<path d="M0 0 C4.04 -0.01 8.09 -0.03 12.13 -0.06 C15.32 -0.08 18.5 -0.08 21.68 -0.08 C23.18 -0.09 24.67 -0.09 26.16 -0.11 C37.96 -0.21 48 1.32 58.46 6.93 C59.39 7.41 59.39 7.41 60.34 7.9 C61.82 8.67 63.3 9.45 64.77 10.24 C64.77 13.87 64.77 17.5 64.77 21.24 C71.04 21.24 77.31 21.24 83.77 21.24 C83.77 24.21 83.77 27.18 83.77 30.24 C90.04 30.24 96.31 30.24 102.77 30.24 C102.77 33.54 102.77 36.84 102.77 40.24 C106.07 40.24 109.37 40.24 112.77 40.24 C112.77 43.54 112.77 46.84 112.77 50.24 C115.74 50.24 118.71 50.24 121.77 50.24 C121.67 51.22 121.67 51.22 121.57 52.22 C121.52 55.24 121.7 57.4 122.77 60.24 C125.55 62.24 128.36 63.43 131.51 64.76 C136.64 67.09 140.59 70.51 144.77 74.24 C145.52 74.9 146.27 75.55 147.04 76.22 C168.16 95.9 178.96 128.05 180.77 156.24 C180.83 156.97 180.88 157.69 180.94 158.44 C185.07 213.96 181.44 267.98 153.77 317.24 C153.08 318.67 153.08 318.67 152.37 320.14 C150.77 322.24 150.77 322.24 148.29 322.73 C145.79 322.57 143.28 322.4 140.77 322.24 C140.77 325.54 140.77 328.84 140.77 332.24 C137.8 332.24 134.83 332.24 131.77 332.24 C131.77 335.54 131.77 338.84 131.77 342.24 C128.47 342.24 125.17 342.24 121.77 342.24 C121.77 345.54 121.77 348.84 121.77 352.24 C118.8 352.24 115.83 352.24 112.77 352.24 C112.77 355.21 112.77 358.18 112.77 361.24 C106.5 361.24 100.23 361.24 93.77 361.24 C93.77 364.54 93.77 367.84 93.77 371.24 C87.5 371.24 81.23 371.24 74.77 371.24 C74.77 374.54 74.77 377.84 74.77 381.24 C68.5 381.24 62.23 381.24 55.77 381.24 C55.77 384.54 55.77 387.84 55.77 391.24 C23.65 406.61 -14.69 402.36 -49.23 401.24 C-49.23 397.94 -49.23 394.64 -49.23 391.24 C-58.47 391.24 -67.71 391.24 -77.23 391.24 C-77.23 387.94 -77.23 384.64 -77.23 381.24 C-83.5 381.24 -89.77 381.24 -96.23 381.24 C-96.23 377.94 -96.23 374.64 -96.23 371.24 C-102.5 371.24 -108.77 371.24 -115.23 371.24 C-115.23 367.94 -115.23 364.64 -115.23 361.24 C-118.2 361.24 -121.17 361.24 -124.23 361.24 C-124.56 358.27 -124.89 355.3 -125.23 352.24 C-125.95 352.1 -126.68 351.97 -127.43 351.83 C-139.63 349.22 -149.04 343.63 -157.23 334.24 C-157.75 333.73 -158.28 333.23 -158.82 332.71 C-163.4 327.72 -162.66 321.63 -162.4 315.28 C-162.34 314.27 -162.28 313.27 -162.23 312.24 C-165.2 312.24 -168.17 312.24 -171.23 312.24 C-173.11 307.18 -174.02 302.18 -174.85 296.87 C-174.98 296.03 -175.12 295.2 -175.26 294.35 C-175.58 292.31 -175.91 290.28 -176.23 288.24 C-176.86 288.25 -177.5 288.26 -178.16 288.28 C-179.4 288.29 -179.4 288.29 -180.66 288.3 C-181.9 288.32 -181.9 288.32 -183.16 288.34 C-185.23 288.24 -185.23 288.24 -186.23 287.24 C-186.31 285.09 -186.33 282.95 -186.32 280.8 C-186.32 279.49 -186.32 278.19 -186.31 276.84 C-186.3 275.46 -186.3 274.07 -186.29 272.68 C-186.28 271.29 -186.28 269.89 -186.27 268.5 C-186.26 265.08 -186.25 261.66 -186.23 258.24 C-189.2 258.24 -192.17 258.24 -195.23 258.24 C-195.23 217.32 -195.23 176.4 -195.23 134.24 C-191.93 134.24 -188.63 134.24 -185.23 134.24 C-185.29 133.53 -185.36 132.83 -185.44 132.1 C-186.53 111.45 -175.87 91.91 -165.01 75.02 C-163.26 72.38 -163.26 72.38 -162.07 70.06 C-158.52 63.8 -151.82 62.19 -145.23 60.24 C-144.57 60.24 -143.91 60.24 -143.23 60.24 C-143.23 56.94 -143.23 53.64 -143.23 50.24 C-140.26 50.24 -137.29 50.24 -134.23 50.24 C-134.23 46.94 -134.23 43.64 -134.23 40.24 C-130.93 40.24 -127.63 40.24 -124.23 40.24 C-124.23 36.94 -124.23 33.64 -124.23 30.24 C-117.96 30.24 -111.69 30.24 -105.23 30.24 C-105.23 27.27 -105.23 24.3 -105.23 21.24 C-98.96 21.24 -92.69 21.24 -86.23 21.24 C-86.23 17.94 -86.23 14.64 -86.23 11.24 C-80.29 11.24 -74.35 11.24 -68.23 11.24 C-68.23 7.94 -68.23 4.64 -68.23 1.24 C-45.48 0.47 -22.76 0.03 0 0 Z M-62.23 96.24 C-66.46 103.75 -67.32 111.03 -67.78 119.48 C-67.82 120.27 -67.86 121.07 -67.91 121.88 C-68.32 130.13 -68.32 138.36 -68.25 146.61 C-68.24 148.26 -68.23 149.91 -68.22 151.56 C-68.19 155.97 -68.16 160.38 -68.12 164.79 C-68.09 169.42 -68.06 174.05 -68.03 178.68 C-67.98 187.43 -67.92 196.17 -67.85 204.92 C-67.78 214.88 -67.71 224.85 -67.65 234.81 C-67.51 255.29 -67.37 275.77 -67.23 296.24 C-59.64 296.24 -52.05 296.24 -44.23 296.24 C-44.23 293.27 -44.23 290.3 -44.23 287.24 C-37.96 287.24 -31.69 287.24 -25.23 287.24 C-25.23 283.94 -25.23 280.64 -25.23 277.24 C-22.26 277.24 -19.29 277.24 -16.23 277.24 C-16.23 273.94 -16.23 270.64 -16.23 267.24 C-9.96 267.24 -3.69 267.24 2.77 267.24 C2.77 263.94 2.77 260.64 2.77 257.24 C9.04 257.24 15.31 257.24 21.77 257.24 C21.77 253.94 21.77 250.64 21.77 247.24 C24.74 247.24 27.71 247.24 30.77 247.24 C30.77 243.94 30.77 240.64 30.77 237.24 C37.04 237.24 43.31 237.24 49.77 237.24 C49.77 233.94 49.77 230.64 49.77 227.24 C53.07 227.24 56.37 227.24 59.77 227.24 C59.77 223.94 59.77 220.64 59.77 217.24 C60.85 217.15 61.93 217.05 63.03 216.96 C68.77 216.24 74.15 214.47 79.65 212.74 C80.69 212.42 81.74 212.1 82.81 211.77 C87.9 210.27 87.9 210.27 92.77 208.24 C94.23 196.82 94.23 196.82 90.83 186.34 C88.24 184.28 85.72 182.73 82.77 181.24 C82.13 180.83 81.49 180.42 80.82 180 C74.77 176.39 67.6 175.51 60.77 174.24 C60.44 170.94 60.11 167.64 59.77 164.24 C53.5 164.24 47.23 164.24 40.77 164.24 C40.77 161.27 40.77 158.3 40.77 155.24 C34.5 155.24 28.23 155.24 21.77 155.24 C21.77 151.61 21.77 147.98 21.77 144.24 C17.48 142.74 13.19 141.24 8.9 139.74 C7.68 139.31 6.45 138.88 5.19 138.44 C4.03 138.03 2.86 137.63 1.66 137.21 C0.58 136.83 -0.5 136.45 -1.61 136.07 C-4.09 135.14 -4.09 135.14 -6.23 135.24 C-6.09 134.24 -6.09 134.24 -5.94 133.23 C-5.71 130.4 -5.69 128.03 -6.23 125.24 C-8.44 122.64 -11.1 121.52 -14.23 120.24 C-15.14 119.86 -16.05 119.48 -16.99 119.09 C-24.57 116.17 -31.15 115.1 -39.23 115.24 C-39.23 111.94 -39.23 108.64 -39.23 105.24 C-42.68 103.74 -46.14 102.24 -49.6 100.74 C-50.58 100.31 -51.57 99.88 -52.58 99.44 C-53.53 99.03 -54.47 98.63 -55.44 98.21 C-56.31 97.83 -57.17 97.45 -58.07 97.07 C-60.15 96.12 -60.15 96.12 -62.23 96.24 Z " fill="#FEFEFE" transform="translate(1652.22509765625,308.759765625)"/>
<path d="M0 0 C1.07 0.03 1.07 0.03 2.16 0.06 C9.29 0.32 14.72 0.82 19.81 6.12 C25.24 12.86 25.3 20.95 25.23 29.2 C25.23 30.16 25.23 31.12 25.23 32.11 C25.23 34.13 25.22 36.15 25.21 38.17 C25.19 41.23 25.19 44.28 25.19 47.34 C25.17 56.95 25.02 66.43 24 76 C27.3 76 30.6 76 34 76 C34 79.3 34 82.6 34 86 C54.13 86 74.26 86 95 86 C95 89.3 95 92.6 95 96 C97.97 96 100.94 96 104 96 C104 102.27 104 108.54 104 115 C107.3 115 110.6 115 114 115 C114 123.58 114 132.16 114 141 C110.7 141 107.4 141 104 141 C104 144.3 104 147.6 104 151 C102.62 150.98 101.24 150.96 99.82 150.93 C96.8 151.27 95.46 151.49 93.41 153.77 C92.09 156.15 90.99 158.54 89.94 161.06 C89.55 161.92 89.16 162.77 88.76 163.65 C87.81 165.75 86.9 167.87 86 170 C81.05 170 76.1 170 71 170 C71 173.3 71 176.6 71 180 C64.73 180 58.46 180 52 180 C52 183.3 52 186.6 52 190 C46.06 190 40.12 190 34 190 C34 193.3 34 196.6 34 200 C30.7 200 27.4 200 24 200 C24 284.48 24 368.96 24 456 C21.03 456 18.06 456 15 456 C15 459.3 15 462.6 15 466 C11.7 466 8.4 466 5 466 C5 469.3 5 472.6 5 476 C-9.19 476 -23.38 476 -38 476 C-38 472.7 -38 469.4 -38 466 C-47.24 466 -56.48 466 -66 466 C-66 462.7 -66 459.4 -66 456 C-72.27 456 -78.54 456 -85 456 C-85 452.7 -85 449.4 -85 446 C-88.3 446 -91.6 446 -95 446 C-95 442.7 -95 439.4 -95 436 C-97.97 436 -100.94 436 -104 436 C-104 433.03 -104 430.06 -104 427 C-107.3 427 -110.6 427 -114 427 C-130.84 397.74 -135.21 367.37 -135.06 333.92 C-135.05 332.54 -135.05 331.16 -135.05 329.78 C-135.04 325.99 -135.03 322.2 -135.01 318.41 C-135 315.96 -134.99 313.52 -134.98 311.07 C-134.94 298.05 -134.88 285.03 -134.82 272.01 C-134.81 269.93 -134.8 267.85 -134.79 265.77 C-134.75 257.1 -134.7 248.42 -134.66 239.74 C-134.61 228.63 -134.55 217.51 -134.5 206.4 C-134.38 177.93 -134.23 149.47 -134 121 C-133.99 120.21 -133.99 119.42 -133.98 118.61 C-133.91 110.12 -133.83 101.64 -133.7 93.16 C-133.67 91.07 -133.64 88.98 -133.62 86.89 C-133.5 75.66 -133.11 66.23 -128 56 C-123.38 56 -118.76 56 -114 56 C-114.27 54.51 -114.54 53.03 -114.81 51.5 C-114.86 48.75 -114.86 48.75 -114 46 C-110.01 42.6 -105.69 40.31 -101 38 C-100.34 37.67 -99.68 37.34 -99 37 C-96.63 36.77 -94.25 36.59 -91.88 36.44 C-90.59 36.35 -89.31 36.27 -87.99 36.18 C-87 36.12 -86.02 36.06 -85 36 C-85 33.03 -85 30.06 -85 27 C-78.73 27 -72.46 27 -66 27 C-66 23.37 -66 19.74 -66 16 C-45.15 3.23 -24.28 -1.13 0 0 Z " fill="#FEFEFE" transform="translate(3448,234)"/>
<path d="M0 0 C1.47 -0.02 1.47 -0.02 2.96 -0.05 C19.69 -0.06 34.29 8.03 45.97 19.58 C49.67 23.39 53.29 27.18 56.62 31.31 C57.49 32.37 57.49 32.37 58.38 33.45 C64.94 42.24 64.93 52.91 64.88 63.52 C64.89 65.09 64.89 65.09 64.89 66.7 C64.9 70.13 64.9 73.56 64.89 76.98 C64.89 79.4 64.89 81.81 64.9 84.22 C64.9 89.26 64.9 94.3 64.89 99.34 C64.87 105.76 64.88 112.17 64.89 118.59 C64.9 123.57 64.9 128.55 64.89 133.52 C64.89 135.89 64.89 138.25 64.9 140.62 C64.94 167.53 63.9 196.41 44.05 216.94 C30.49 229.55 12.66 229.78 -4.75 229.56 C-6.62 229.55 -8.48 229.54 -10.35 229.53 C-16.36 229.48 -22.37 229.4 -28.38 229.31 C-29.42 229.3 -30.46 229.28 -31.53 229.27 C-38.91 229.15 -46.3 229.02 -53.69 228.88 C-54.67 228.86 -55.65 228.84 -56.65 228.82 C-70.57 228.53 -84.47 228.01 -98.38 227.31 C-98.35 228.15 -98.32 228.99 -98.29 229.85 C-97.57 251.02 -97.16 272.17 -97.13 293.35 C-97.13 297.24 -97.1 301.14 -97.08 305.04 C-97.06 308.1 -97.05 311.16 -97.05 314.22 C-97.05 315.66 -97.04 317.1 -97.03 318.54 C-96.94 328.7 -97.43 337.3 -104.38 345.31 C-112.51 350.26 -119.3 351.6 -128.69 351.81 C-129.72 351.87 -130.75 351.92 -131.82 351.98 C-139.27 352.11 -139.27 352.11 -142.35 349.89 C-143.92 348.11 -145.17 346.35 -146.38 344.31 C-146.88 343.48 -147.39 342.64 -147.91 341.79 C-156.9 321.85 -157.74 300.22 -157.56 278.69 C-157.55 276.8 -157.54 274.91 -157.53 273.02 C-157.51 268.83 -157.47 264.64 -157.43 260.44 C-157.39 255.33 -157.36 250.21 -157.35 245.09 C-157.33 238.52 -157.29 231.95 -157.24 225.37 C-157.21 221.75 -157.18 218.13 -157.18 214.51 C-157.18 210.41 -157.13 206.31 -157.08 202.22 C-157.09 201.01 -157.09 199.79 -157.09 198.55 C-156.92 188.56 -154.47 176.78 -147.38 169.31 C-139.73 164.98 -133.05 163.18 -124.29 163.2 C-123.25 163.2 -123.25 163.2 -122.19 163.2 C-119.91 163.2 -117.63 163.21 -115.36 163.21 C-113.77 163.22 -112.19 163.22 -110.6 163.22 C-106.44 163.22 -102.28 163.23 -98.12 163.24 C-93.12 163.26 -88.12 163.26 -83.13 163.27 C-75.54 163.28 -67.96 163.3 -60.38 163.31 C-60.38 143.84 -60.38 124.37 -60.38 104.31 C-67.02 106.53 -71.8 108.5 -77.44 112.25 C-80.06 113.97 -82.7 115.66 -85.38 117.31 C-85.98 117.7 -86.58 118.09 -87.19 118.48 C-93.3 122.03 -99.45 122.08 -106.38 122.31 C-107.55 122.37 -108.73 122.42 -109.94 122.47 C-119.49 122.87 -129.04 123.07 -138.6 123.26 C-141.55 123.32 -144.51 123.38 -147.46 123.45 C-152.78 123.57 -158.09 123.65 -163.41 123.71 C-165.5 123.74 -167.59 123.77 -169.68 123.82 C-172.64 123.89 -175.59 123.92 -178.54 123.93 C-179.42 123.96 -180.29 123.99 -181.2 124.02 C-187.9 124 -191.49 121.77 -196.38 117.31 C-197.37 116.45 -198.36 115.58 -199.38 114.69 C-202.38 109.61 -202.18 105.07 -201.38 99.31 C-200.4 96.06 -199.03 93.27 -197.38 90.31 C-196.63 88.55 -196.63 88.55 -195.88 86.75 C-192.92 83.87 -192.23 83.93 -188.25 83.88 C-185.96 83.99 -183.66 84.14 -181.38 84.31 C-170.54 85.05 -159.73 85.47 -148.87 85.54 C-147.44 85.56 -146.01 85.57 -144.58 85.6 C-132.1 85.78 -119.53 84.99 -108.19 79.25 C-106.95 78.62 -105.71 78 -104.47 77.38 C-103.82 77.04 -103.17 76.71 -102.5 76.36 C-100.16 75.21 -97.79 74.17 -95.41 73.12 C-83.37 67.74 -76.01 61.96 -68.38 51.31 C-67.18 49.71 -65.98 48.11 -64.79 46.51 C-62.4 43.31 -60.04 40.09 -57.7 36.86 C-42.58 16.02 -27.22 -0.09 0 0 Z " fill="#F8FBFD" transform="translate(697.375,491.6875)"/>
<path d="M0 0 C0.94 -0 1.87 -0 2.84 -0 C3.8 -0 4.77 0 5.77 0.01 C6.72 0 7.67 0 8.65 -0 C33.12 0.03 50.58 15.27 67.57 31.73 C68.93 33.05 70.31 34.35 71.69 35.65 C80.71 44.33 87.74 53.89 94.14 64.57 C100.09 74.41 106.57 79.05 117.8 82.19 C123.81 83.49 129.82 83.45 135.95 83.47 C138.1 83.48 140.24 83.5 142.39 83.52 C147.73 83.58 153.06 83.61 158.4 83.65 C162.92 83.68 167.44 83.72 171.96 83.77 C174.07 83.79 176.17 83.8 178.28 83.81 C187.96 83.91 195.24 84.46 203.45 90.01 C204.48 90.69 205.51 91.36 206.57 92.06 C209.23 94.31 209.56 94.83 210.02 98.13 C209.76 100.51 209.76 100.51 209.24 103.12 C209.05 104.05 208.87 104.99 208.68 105.95 C208.38 107.4 208.38 107.4 208.08 108.88 C207.88 109.87 207.69 110.85 207.49 111.86 C207 114.29 206.51 116.71 206.02 119.13 C179.96 119.38 153.93 119.15 127.89 118.38 C125.84 118.32 123.79 118.27 121.74 118.21 C117.86 118.11 113.98 117.99 110.1 117.86 C108.95 117.84 107.81 117.81 106.63 117.78 C92.1 117.25 83.46 113.3 70.02 106.13 C69.69 123.95 69.36 141.77 69.02 160.13 C73.31 160.13 77.6 160.13 82.02 160.13 C86.01 160.4 89.97 160.69 93.95 161.07 C95.44 161.2 95.44 161.2 96.95 161.33 C100.68 161.67 104.36 162.01 108.05 162.69 C112.52 163.36 116.95 163.28 121.45 163.26 C122.83 163.26 122.83 163.26 124.23 163.27 C128.21 163.26 131.88 163.16 135.82 162.48 C144.68 161.52 153.31 169.57 159.84 174.79 C167.25 182.76 165.16 198.19 165.16 208.37 C165.16 209.64 165.17 210.9 165.17 212.21 C165.18 215.64 165.18 219.08 165.18 222.51 C165.18 224.67 165.19 226.82 165.19 228.98 C165.2 236.52 165.2 244.07 165.2 251.61 C165.2 258.6 165.21 265.59 165.23 272.58 C165.24 278.62 165.25 284.66 165.24 290.7 C165.24 294.29 165.25 297.88 165.26 301.47 C165.36 338.8 165.36 338.8 161.73 343.96 C160.15 345.28 160.15 345.28 156.7 346.95 C155.57 347.53 154.44 348.11 153.28 348.71 C152.2 349.18 151.12 349.65 150.02 350.13 C149.25 350.52 148.49 350.9 147.71 351.29 C140.07 353.68 129.11 354.15 121.88 350.59 C119.59 348.58 117.82 346.58 116.02 344.13 C115.49 343.52 114.96 342.92 114.42 342.29 C109.4 336.14 109.86 328.89 109.88 321.36 C109.88 320.5 109.88 319.64 109.88 318.75 C109.88 315.9 109.88 313.05 109.89 310.2 C109.89 308.72 109.89 308.72 109.89 307.22 C109.92 280.85 110.46 254.49 111.02 228.13 C110.16 228.2 109.3 228.26 108.42 228.33 C97.83 229.09 87.25 229.46 76.64 229.7 C75.75 229.72 74.85 229.74 73.93 229.76 C67.29 229.9 60.65 230.02 54.02 230.13 C53.07 230.15 52.12 230.16 51.15 230.18 C45.57 230.27 39.99 230.33 34.41 230.36 C32.67 230.38 30.93 230.39 29.2 230.42 C8.09 230.68 -9.02 226.14 -25.98 213.13 C-26.66 212.62 -27.34 212.12 -28.04 211.59 C-42.88 198.78 -47.93 173.56 -49.98 155.13 C-50.08 154.33 -50.17 153.53 -50.26 152.7 C-51.28 142.22 -51.19 131.72 -51.22 121.2 C-51.23 120.16 -51.23 119.11 -51.24 118.04 C-51.26 112.53 -51.27 107.01 -51.28 101.5 C-51.29 95.84 -51.33 90.18 -51.36 84.52 C-51.39 80.13 -51.4 75.75 -51.4 71.36 C-51.41 69.28 -51.42 67.19 -51.44 65.1 C-51.59 46.81 -49.27 30.17 -36.22 16.11 C-26.31 7.36 -13.48 0.02 0 0 Z " fill="#F8FBFD" transform="translate(251.984375,490.8671875)"/>
<path d="M0 0 C14.3 6.05 21.39 26.25 26.87 39.61 C27.66 41.57 28.45 43.54 29.24 45.51 C30.44 48.5 31.67 51.48 32.9 54.46 C36.7 63.79 39.95 72.12 39.98 82.3 C40.08 95.25 50.89 110.08 57 121 C58.13 120.04 59.25 119.08 60.38 118.12 C61 117.59 61.63 117.06 62.27 116.51 C65.08 114.31 65.08 114.31 66.21 111.14 C66.19 110.39 66.18 109.64 66.17 108.86 C66.19 95.55 68.63 85.56 74.06 73.5 C74.78 71.83 75.5 70.17 76.21 68.5 C77.69 65.06 79.19 61.62 80.71 58.19 C83 53.03 85.23 47.84 87.45 42.64 C92.84 30.04 98.27 17.45 104 5 C116.2 5.79 124.79 9.78 133 19 C156.71 51.47 152 88.59 152 128 C89.63 128 27.26 128 -37 128 C-37 36.93 -37 36.93 -3.75 3.62 C-2.51 2.41 -1.26 1.2 0 0 Z " fill="#F7FAFD" transform="translate(419,370)"/>
<path d="M0 0 C1.22 -0.01 2.44 -0.02 3.7 -0.04 C4.88 -0.04 6.06 -0.04 7.27 -0.04 C8.88 -0.05 8.88 -0.05 10.53 -0.06 C22.67 0.9 34 11.3 41.62 20.19 C44.11 23.43 46.43 26.75 48.62 30.19 C49.16 30.95 49.7 31.7 50.26 32.48 C55.72 43.28 54.06 62.5 51 73.88 C50.27 76 49.48 78.11 48.62 80.19 C48.2 81.23 47.78 82.27 47.34 83.35 C41.72 95.73 32.71 104.84 20.17 110.25 C5.42 115.49 -12.17 114.56 -26.38 108.19 C-40.63 100.97 -49.49 91.04 -54.56 75.89 C-59.42 59.77 -58.8 45.17 -50.77 30.19 C-42.37 16.32 -31.32 5.41 -15.62 0.65 C-10.53 -0.41 -5.17 0 0 0 Z " fill="#F9FCFD" transform="translate(689.375,372.8125)"/>
<path d="M0 0 C2.76 2.29 5.29 4.77 7.81 7.31 C8.51 8.02 9.22 8.72 9.94 9.44 C22.52 22.4 26.58 32.38 26.34 50.3 C25.83 64.96 21.25 83.41 10.79 94.3 C8.28 96.18 5.81 97.6 3 99 C2.42 99.3 1.83 99.6 1.23 99.92 C-11.62 106.54 -25.39 110.78 -40 108 C-46.01 105.79 -51.04 101.98 -56 98 C-57.03 97.19 -58.06 96.37 -59.12 95.53 C-66.68 89.08 -77.62 78.47 -78.83 68.24 C-79.85 54.83 -80.8 39.77 -76 27 C-75.58 25.85 -75.16 24.7 -74.73 23.51 C-68.8 9.58 -56.75 1.6 -43 -4 C-30.56 -8.9 -11.39 -6.91 0 0 Z " fill="#F7FBFD" transform="translate(502,267)"/>
<path d="M0 0 C1.52 0.62 1.52 0.62 3.07 1.25 C15.11 6.67 23.9 15.34 30 27 C30.52 27.94 30.52 27.94 31.06 28.91 C34.34 35.37 34.7 41.26 34.62 48.44 C34.61 50.15 34.61 50.15 34.6 51.9 C34.24 66.07 30.11 78.36 22 90 C21.42 90.99 20.85 91.99 20.25 93.01 C17.64 96.48 14.87 98.23 11.06 100.12 C10.4 100.46 9.73 100.8 9.04 101.15 C-5.51 108.33 -21.26 110.89 -37 106 C-51.38 98.85 -64.47 85.98 -70.22 70.87 C-71.71 65.4 -71.59 59.94 -71.5 54.31 C-71.49 53.07 -71.47 51.83 -71.46 50.55 C-71.14 35.94 -67.78 24.51 -60 12 C-59.62 11.37 -59.25 10.75 -58.86 10.11 C-53.82 2.98 -43.54 -1.64 -35.24 -3.56 C-23.07 -5.21 -11.43 -4.79 0 0 Z " fill="#F8FBFD" transform="translate(287,377)"/>
<path d="M0 0 C7.92 3.96 7.92 3.96 16 8 C24.48 10.68 32.23 11.5 41.08 11.7 C42.93 11.75 42.93 11.75 44.82 11.81 C48.13 11.91 51.45 11.99 54.76 12.07 C58.21 12.16 61.66 12.26 65.11 12.36 C73.4 12.6 81.7 12.8 90 13 C91.26 13.03 92.52 13.06 93.82 13.09 C108.21 13.44 122.6 13.74 137 14 C137.67 15.46 138.34 16.92 139 18.38 C139.37 19.19 139.74 20 140.12 20.84 C141 23 141 23 141 25 C142.03 24.99 143.05 24.98 144.11 24.97 C156.96 24.89 169.76 25.32 182.6 25.84 C184.81 25.93 187.03 26.01 189.24 26.1 C193.84 26.28 198.43 26.47 203.03 26.65 C208.93 26.89 214.83 27.12 220.74 27.35 C225.29 27.53 229.84 27.71 234.39 27.9 C236.57 27.98 238.75 28.07 240.92 28.15 C243.95 28.27 246.97 28.39 249.99 28.52 C250.9 28.55 251.8 28.59 252.73 28.62 C258.89 28.89 258.89 28.89 260 30 C260.1 32.64 260.14 35.24 260.12 37.88 C260.13 38.61 260.13 39.34 260.14 40.1 C260.13 43.32 260.03 45.92 259 49 C247.73 50.22 236.44 50.3 225.12 50.5 C222.22 50.55 219.32 50.61 216.42 50.66 C214.63 50.7 212.84 50.73 211.05 50.76 C204.57 50.89 198.11 51.18 191.65 51.49 C181.41 51.97 171.18 52.24 160.94 52.41 C157.97 52.47 155 52.52 152.02 52.58 C143.59 52.74 135.16 52.9 126.73 53.05 C121.53 53.14 116.32 53.24 111.11 53.34 C109.16 53.38 107.2 53.42 105.24 53.45 C88.02 53.62 88.02 53.62 71 56 C70.5 56.99 70.5 56.99 70 58 C64.49 59.14 58.99 59.19 53.38 59.19 C52 59.19 52 59.19 50.6 59.19 C42.65 59.12 34.81 58.49 26.91 57.63 C17.95 56.67 8.97 55.85 0 55 C0 36.85 0 18.7 0 0 Z " fill="#1B9DF1" transform="translate(321,596)"/>
<path d="M0 0 C136.95 0 273.9 0 415 0 C415 43.89 415 87.78 415 133 C408 137 408 137 405 137 C405 95.09 405 53.18 405 10 C273 10 141 10 5 10 C6.31 27.74 6.31 27.74 7.63 45.48 C9.69 76.28 9.19 107.15 9 138 C6.03 138 3.06 138 0 138 C0 92.46 0 46.92 0 0 Z " fill="#E1F1FC" transform="translate(269,217)"/>
<path d="M0 0 C66.66 0 133.32 0 202 0 C202 4.62 202 9.24 202 14 C135.34 14 68.68 14 0 14 C0 9.38 0 4.76 0 0 Z " fill="#E8F4FB" transform="translate(378,626)"/>
<path d="M0 0 C3.3 0 6.6 0 10 0 C12.16 5.96 13.56 12.1 15.06 18.25 C15.59 20.42 16.13 22.59 16.66 24.77 C16.89 25.72 17.13 26.68 17.37 27.67 C17.92 30 17.92 30 19 32 C20.13 44.72 16.32 53.28 10 64 C8.52 64.03 7.04 64.05 5.56 64.06 C4.33 64.08 4.33 64.08 3.07 64.1 C1 64 1 64 0 63 C-0.37 60.77 -0.69 58.53 -0.97 56.28 C-1.06 55.6 -1.15 54.91 -1.24 54.2 C-6.1 15.67 -6.1 15.67 0 0 Z " fill="#E3F1F9" transform="translate(471,399)"/>
<path d="M0 0 C0.33 0 0.66 0 1 0 C1.08 0.82 1.16 1.65 1.24 2.5 C3.35 24.28 3.35 24.28 6 46 C8.97 46 11.94 46 15 46 C16.32 43.36 17.64 40.72 19 38 C19.33 38 19.66 38 20 38 C21.47 48.03 23.44 61.42 17.93 70.37 C15.72 72.53 13.6 74.34 11 76 C8.4 73.65 6.85 71.21 5.19 68.14 C4.67 67.19 4.15 66.24 3.62 65.26 C3.08 64.27 2.55 63.27 2 62.25 C1.47 61.27 0.93 60.3 0.38 59.29 C-4.68 49.95 -7.85 42.31 -8.69 31.62 C-8.79 30.36 -8.9 29.09 -9.01 27.79 C-9 23.78 -8.27 20.79 -7 17 C-6.58 15.69 -6.58 15.69 -6.15 14.35 C-5.89 13.59 -5.64 12.84 -5.38 12.06 C-5.11 11.29 -4.85 10.52 -4.59 9.72 C-4.39 9.15 -4.2 8.59 -4 8 C-2.68 8 -1.36 8 0 8 C0 5.36 0 2.72 0 0 Z " fill="#239DEC" transform="translate(466,416)"/>
</svg>
