<?xml version="1.0" encoding="UTF-8"?>
<svg version="1.1" xmlns="http://www.w3.org/2000/svg" width="211" height="210">
<path d="M0 0 C1.48372772 1.2445827 2.96303242 2.49446052 4.4375 3.75 C5.26765625 4.389375 6.0978125 5.02875 6.953125 5.6875 C23.31598118 19.27175796 34.0234717 42.29039155 37.4375 62.75 C37.62183594 63.82378906 37.80617187 64.89757812 37.99609375 66.00390625 C40.69401949 88.90046186 36.91777502 113.06337263 24.4375 132.75 C24.03789062 133.43191406 23.63828125 134.11382812 23.2265625 134.81640625 C9.63605736 157.62594831 -14.15109741 172.8479968 -39.33203125 179.7890625 C-61.01861449 184.56859784 -82.77789269 182.30679402 -103.234375 174.0546875 C-105.70450252 173.08635112 -107.97705927 172.28536904 -110.5625 171.75 C-110.5625 171.09 -110.5625 170.43 -110.5625 169.75 C-111.26761719 169.4921875 -111.97273438 169.234375 -112.69921875 168.96875 C-115.80519315 167.64669814 -118.52228065 166.05252146 -121.375 164.25 C-122.35082031 163.6415625 -123.32664063 163.033125 -124.33203125 162.40625 C-125.06808594 161.8596875 -125.80414063 161.313125 -126.5625 160.75 C-126.5625 160.09 -126.5625 159.43 -126.5625 158.75 C-127.366875 158.4096875 -127.366875 158.4096875 -128.1875 158.0625 C-134.16732764 154.75785841 -138.18766164 150.04524136 -142.25 144.6875 C-142.95866211 143.77000977 -142.95866211 143.77000977 -143.68164062 142.83398438 C-144.59019123 141.65528969 -145.49438144 140.47321727 -146.39355469 139.28735352 C-147.30871176 138.08377288 -148.24265894 136.89447479 -149.18359375 135.7109375 C-160.43235024 119.71412232 -164.97705755 99.67684979 -164.875 80.4375 C-164.87081055 79.34735596 -164.86662109 78.25721191 -164.86230469 77.1340332 C-164.68316447 64.29215717 -161.99500561 52.79867596 -157.5625 40.75 C-157.10617188 39.50283203 -157.10617188 39.50283203 -156.640625 38.23046875 C-155.96059828 36.39888734 -155.26385425 34.57352105 -154.5625 32.75 C-153.9025 32.75 -153.2425 32.75 -152.5625 32.75 C-152.30984375 32.04746094 -152.0571875 31.34492187 -151.796875 30.62109375 C-142.53387281 9.07581966 -120.62653092 -6.97152245 -99.47265625 -15.5390625 C-66.26407918 -27.898901 -27.70836293 -22.01934897 0 0 Z " fill="#039BFD" transform="translate(168.5625,25.25)"/>
<path d="M0 0 C4.71428316 1.75630157 7.22284024 3.83151937 10 8 C10.50170898 11.02685547 10.50170898 11.02685547 10.49609375 14.3671875 C10.49673828 15.58277344 10.49738281 16.79835938 10.49804688 18.05078125 C10.47806641 19.31277344 10.45808594 20.57476562 10.4375 21.875 C10.44458984 23.12925781 10.45167969 24.38351563 10.45898438 25.67578125 C10.37764833 37.50079024 10.37764833 37.50079024 7 43 C3.68480742 46.2047019 1.23148722 46.35704935 -3.296875 46.29296875 C-5.10478516 46.2784668 -5.10478516 46.2784668 -6.94921875 46.26367188 C-8.20347656 46.23853516 -9.45773438 46.21339844 -10.75 46.1875 C-12.01972656 46.17396484 -13.28945312 46.16042969 -14.59765625 46.14648438 C-17.73219844 46.1111324 -20.86588545 46.06178248 -24 46 C-23.98428955 46.65073486 -23.9685791 47.30146973 -23.95239258 47.97192383 C-23.89005351 50.91869424 -23.85101316 53.86532598 -23.8125 56.8125 C-23.78736328 57.83666016 -23.76222656 58.86082031 -23.73632812 59.91601562 C-23.72666016 60.89892578 -23.71699219 61.88183594 -23.70703125 62.89453125 C-23.6913208 63.80050049 -23.67561035 64.70646973 -23.65942383 65.63989258 C-24 68 -24 68 -25.3269043 69.79956055 C-27.88327343 71.63374514 -29.94975853 71.32449377 -33 71 C-37.78853498 66.21146502 -36.2499362 54.68162263 -36.3125 48.1875 C-36.34150391 47.16462891 -36.37050781 46.14175781 -36.40039062 45.08789062 C-36.4622244 37.82480042 -36.4622244 37.82480042 -34.49609375 34.31640625 C-30.9435675 32.44285172 -27.65497394 32.57061957 -23.75 32.75 C-23.00492188 32.76804688 -22.25984375 32.78609375 -21.4921875 32.8046875 C-19.66090299 32.85164351 -17.83028351 32.92338348 -16 33 C-16.33 29.37 -16.66 25.74 -17 22 C-18.32 22.99 -19.64 23.98 -21 25 C-23.42602539 25.38818359 -23.42602539 25.38818359 -26.09765625 25.3984375 C-27.06380859 25.40230469 -28.02996094 25.40617187 -29.02539062 25.41015625 C-30.02763672 25.39855469 -31.02988281 25.38695312 -32.0625 25.375 C-33.06861328 25.38660156 -34.07472656 25.39820313 -35.11132812 25.41015625 C-36.07619141 25.40628906 -37.04105469 25.40242188 -38.03515625 25.3984375 C-38.9156665 25.39505371 -39.79617676 25.39166992 -40.70336914 25.38818359 C-43.4431917 24.92509038 -44.37545613 24.224838 -46 22 C-45.74853421 19.86254078 -45.54074221 18.54074221 -44 17 C-42.64892639 17.00075008 -41.29779118 17.05844929 -39.94921875 17.140625 C-29.32820117 17.71895275 -29.32820117 17.71895275 -20.1796875 13.1484375 C-18.07079766 10.92563038 -16.2292774 8.56401026 -14.41015625 6.1015625 C-10.23561418 0.72946136 -6.75875228 -0.71144761 0 0 Z " fill="#FAFCFE" transform="translate(154,103)"/>
<path d="M0 0 C5.69823675 2.7909731 12.1830334 8.49009182 15.14453125 14.2109375 C18.29385094 17.24754469 22.29822536 16.6000266 26.5 16.625 C28.21889364 16.65054077 29.93769203 16.68406338 31.65625 16.7265625 C32.79803711 16.73550537 32.79803711 16.73550537 33.96289062 16.74462891 C36 17 36 17 39 19 C38.505 21.475 38.505 21.475 38 24 C33.91680116 24.0871142 29.83384136 24.14043048 25.75 24.1875 C24.59113281 24.21263672 23.43226562 24.23777344 22.23828125 24.26367188 C21.12324219 24.27333984 20.00820312 24.28300781 18.859375 24.29296875 C17.31975098 24.31653442 17.31975098 24.31653442 15.74902344 24.34057617 C13 24 13 24 9 21 C9 24.63 9 28.26 9 32 C10.32064453 31.96519531 10.32064453 31.96519531 11.66796875 31.9296875 C12.82941406 31.91164062 13.99085937 31.89359375 15.1875 31.875 C16.33605469 31.85179687 17.48460937 31.82859375 18.66796875 31.8046875 C23.06818091 32.06261318 25.86904951 32.86904951 29 36 C29.21169748 38.48542247 29.3039953 40.85674843 29.30078125 43.34375 C29.30506638 44.06864624 29.3093515 44.79354248 29.31376648 45.54040527 C29.31951167 47.07363846 29.32000864 48.6068989 29.31567383 50.14013672 C29.31251206 52.49103044 29.33597461 54.84066808 29.36132812 57.19140625 C29.36360087 58.67968591 29.36430473 60.16796896 29.36328125 61.65625 C29.372491 62.36148804 29.38170074 63.06672607 29.39118958 63.79333496 C29.37231445 65.77539062 29.37231445 65.77539062 29 69 C25.76746204 71.15502531 24.74849077 71.46856135 21 71 C19.36206055 69.79956055 19.36206055 69.79956055 18 68 C17.65942383 65.63989258 17.65942383 65.63989258 17.70703125 62.89453125 C17.7215332 61.42016602 17.7215332 61.42016602 17.73632812 59.91601562 C17.76146484 58.89185547 17.78660156 57.86769531 17.8125 56.8125 C17.82603516 55.77673828 17.83957031 54.74097656 17.85351562 53.67382812 C17.88888611 51.11536301 17.93824456 48.5579422 18 46 C17.30438965 46.02094727 16.6087793 46.04189453 15.89208984 46.06347656 C12.71987542 46.1469698 9.54789269 46.19876529 6.375 46.25 C4.73337891 46.30027344 4.73337891 46.30027344 3.05859375 46.3515625 C-3.2919446 46.42853872 -7.21005534 46.34213681 -12 42 C-17.31577796 35.58440591 -16.24999087 25.23921527 -16.375 17.3125 C-16.41238281 16.40177734 -16.44976562 15.49105469 -16.48828125 14.55273438 C-16.5467925 10.07662362 -16.49296415 6.98176468 -13.6015625 3.41796875 C-9.29225108 -0.58723211 -5.70919225 -0.66881879 0 0 Z " fill="#FAFCFE" transform="translate(62,103)"/>
<path d="M0 0 C3.25467791 2.67348542 4.41891879 5.91258414 6 9.75 C6.495 10.94109375 6.99 12.1321875 7.5 13.359375 C8.2425 15.16148438 8.2425 15.16148438 9 17 C9.99264546 19.33656956 10.99563193 21.66843126 12 24 C12.30292969 23.26136719 12.60585937 22.52273437 12.91796875 21.76171875 C15.80417569 14.77265763 18.8253197 7.86271315 22 1 C25.01548412 1.58669461 25.89264381 1.88948627 28.125 4.1875 C33.05593745 11.58390617 32 16.72496885 32 26 C18.8 26 5.6 26 -8 26 C-8 8.31615925 -8 8.31615925 -1.33203125 1.2265625 C-0.89246094 0.82179688 -0.45289062 0.41703125 0 0 Z " fill="#FAFCFE" transform="translate(92,78)"/>
<path d="M0 0 C3.02508145 1.73602105 5.41790069 3.83580137 7 7 C7.58141192 11.90047189 7.56677128 14.93124029 4.625 19 C1.88973732 21.83921566 -0.1433722 22.51761255 -4.0625 22.6875 C-8.48397782 22.35505806 -11.02158983 21.44378675 -14 18 C-15.83548272 14.91305179 -16.00207001 13.11592056 -15.9375 9.5 C-14.82276962 5.33833993 -13.28026327 3.72021832 -10 1 C-6.77140153 -0.61429923 -3.49006347 -0.59570657 0 0 Z " fill="#FBFDFE" transform="translate(153,79)"/>
<path d="M0 0 C2.64233769 2.19257809 4.46669809 3.93339618 6 7 C6.12869215 11.67887885 5.61044587 15.11207874 2.9375 19 C-0.71400628 21.48613193 -3.57972243 22.45846323 -8 22 C-11.79560358 20.03190926 -13.6288722 18.5566917 -16 15 C-16.72517392 10.49717589 -16.60000036 7.00714346 -14.25 3.0625 C-9.72337966 -1.08690198 -6.02496845 -1.88877979 0 0 Z " fill="#F9FCFE" transform="translate(109,57)"/>
<path d="M0 0 C2.60224857 2.17862671 3.49450535 3.18630013 4.6875 6.25 C5.11618509 11.24239508 4.35327728 14.45431495 1.125 18.3125 C-2.94001709 20.60369145 -5.75685569 21.40928921 -10.3125 20.25 C-13.32536852 18.48002108 -15.72478811 16.42542377 -17.3125 13.25 C-17.65958476 7.95695745 -17.82601894 4.51641586 -14.3125 0.25 C-9.82307362 -3.11706979 -4.74264221 -2.50554683 0 0 Z " fill="#FAFCFE" transform="translate(66.3125,80.75)"/>
<path d="M0 0 C1.98 0.99 1.98 0.99 4 2 C6.80317836 2.36448829 6.80317836 2.36448829 9.859375 2.4140625 C11.53193359 2.47207031 11.53193359 2.47207031 13.23828125 2.53125 C14.39714844 2.5621875 15.55601563 2.593125 16.75 2.625 C18.51150391 2.68300781 18.51150391 2.68300781 20.30859375 2.7421875 C23.20557268 2.8363982 26.10254626 2.92201602 29 3 C29.33 3.66 29.66 4.32 30 5 C38.25 5.33 46.5 5.66 55 6 C55.495 7.98 55.495 7.98 56 10 C54.83952148 10.02505615 53.67904297 10.0501123 52.48339844 10.07592773 C48.17453118 10.17015772 43.86581927 10.27034035 39.55712891 10.37231445 C37.69290808 10.41560433 35.82864912 10.45728361 33.96435547 10.49731445 C31.2834118 10.55516113 28.602659 10.61881405 25.921875 10.68359375 C25.08944275 10.70030624 24.2570105 10.71701874 23.39935303 10.73423767 C22.61884583 10.75418289 21.83833862 10.77412811 21.03417969 10.79467773 C20.00825714 10.81799416 20.00825714 10.81799416 18.96160889 10.84178162 C16.96655228 10.94763587 16.96655228 10.94763587 14.95001221 11.520401 C11.99740668 12.24658448 9.26311459 11.83368031 6.25 11.5625 C5.07953125 11.46066406 3.9090625 11.35882813 2.703125 11.25390625 C1.81109375 11.17011719 0.9190625 11.08632812 0 11 C0 7.37 0 3.74 0 0 Z " fill="#149AF1" transform="translate(71,124)"/>
<path d="M0 0 C29.04 0 58.08 0 88 0 C88 8.91 88 17.82 88 27 C87.34 27.33 86.68 27.66 86 28 C86 19.42 86 10.84 86 2 C57.95 2 29.9 2 1 2 C1.33 6.95 1.66 11.9 2 17 C2.03569348 20.67642825 2.06870545 24.32807539 2 28 C1.34 28 0.68 28 0 28 C0 18.76 0 9.52 0 0 Z " fill="#EAF5FC" transform="translate(60,47)"/>
<path d="M0 0 C14.19 0 28.38 0 43 0 C43.495 1.485 43.495 1.485 44 3 C29.48 3 14.96 3 0 3 C0 2.01 0 1.02 0 0 Z " fill="#E8F4FB" transform="translate(83,130)"/>
<path d="M0 0 C0 3.96 0 7.92 0 12 C-4.62 12 -9.24 12 -14 12 C-13.34 11.34 -12.68 10.68 -12 10 C-12 8.68 -12 7.36 -12 6 C-16.95 5.67 -21.9 5.34 -27 5 C-27 4.67 -27 4.34 -27 4 C-26.35450195 3.98541748 -25.70900391 3.97083496 -25.04394531 3.95581055 C-22.11203427 3.8812213 -19.18124835 3.7845976 -16.25 3.6875 C-15.23421875 3.66494141 -14.2184375 3.64238281 -13.171875 3.61914062 C-12.1921875 3.58369141 -11.2125 3.54824219 -10.203125 3.51171875 C-8.85202637 3.47244263 -8.85202637 3.47244263 -7.47363281 3.43237305 C-4.66803581 2.94197507 -2.46023038 0 0 0 Z " fill="#0797F4" transform="translate(138,124)"/>
<path d="M0 0 C0.66 0 1.32 0 2 0 C2.39222105 1.41199578 2.76311059 2.82992764 3.125 4.25 C3.33382812 5.03890625 3.54265625 5.8278125 3.7578125 6.640625 C4.04314411 9.4203071 3.44977894 10.65887549 2 13 C1.34 13 0.68 13 0 13 C-1.57170996 9.85658007 -1.23175783 6.44228549 -1 3 C-0.67 2.01 -0.34 1.02 0 0 Z " fill="#E7F3FA" transform="translate(103,84)"/>
<path d="M0 0 C0.33 0 0.66 0 1 0 C1.33 2.64 1.66 5.28 2 8 C2.66 8 3.32 8 4 8 C4.33 7.34 4.66 6.68 5 6 C5.125 8.875 5.125 8.875 5 12 C4.34 12.66 3.68 13.32 3 14 C-1.07877462 7.10284464 -1.07877462 7.10284464 -0.75 2.5 C-0.5025 1.675 -0.255 0.85 0 0 Z " fill="#209CEC" transform="translate(101,89)"/>
<path d="" fill="#7FDFFF" transform="translate(0,0)"/>
<path d="" fill="#7FFFFF" transform="translate(0,0)"/>
<path d="" fill="#FFFFFF" transform="translate(0,0)"/>
<path d="" fill="#7FBFFF" transform="translate(0,0)"/>
<path d="" fill="#7FD4FF" transform="translate(0,0)"/>
<path d="" fill="#FFFFFF" transform="translate(0,0)"/>
<path d="" fill="#FFFFFF" transform="translate(0,0)"/>
<path d="" fill="#7FFFFF" transform="translate(0,0)"/>
<path d="" fill="#FFFFFF" transform="translate(0,0)"/>
<path d="" fill="#7FFFFF" transform="translate(0,0)"/>
<path d="" fill="#7FFFFF" transform="translate(0,0)"/>
<path d="" fill="#7FDFFF" transform="translate(0,0)"/>
<path d="" fill="#FFFFFF" transform="translate(0,0)"/>
<path d="" fill="#7FDFFF" transform="translate(0,0)"/>
<path d="" fill="#7FCCFF" transform="translate(0,0)"/>
<path d="" fill="#FFFFFF" transform="translate(0,0)"/>
<path d="" fill="#FFFFFF" transform="translate(0,0)"/>
<path d="" fill="#7FD4FF" transform="translate(0,0)"/>
<path d="" fill="#7FFFFF" transform="translate(0,0)"/>
<path d="" fill="#FFFFFF" transform="translate(0,0)"/>
<path d="" fill="#7FFFFF" transform="translate(0,0)"/>
<path d="" fill="#FFFFFF" transform="translate(0,0)"/>
<path d="" fill="#FFFFFF" transform="translate(0,0)"/>
<path d="" fill="#FFFFFF" transform="translate(0,0)"/>
<path d="" fill="#7FBFFF" transform="translate(0,0)"/>
<path d="" fill="#FFFFFF" transform="translate(0,0)"/>
<path d="" fill="#7FBFFF" transform="translate(0,0)"/>
<path d="" fill="#7FD4FF" transform="translate(0,0)"/>
<path d="" fill="#7FBFFF" transform="translate(0,0)"/>
<path d="" fill="#FFFFFF" transform="translate(0,0)"/>
</svg>
